<?xml version="1.0" encoding="utf-8"?>
<!-- Generator: Adobe Illustrator 20.1.0, SVG Export Plug-In . SVG Version: 6.00 Build 0)  -->
<svg version="1.1" id="Capa_1" xmlns="http://www.w3.org/2000/svg" xmlns:xlink="http://www.w3.org/1999/xlink" x="0px" y="0px"
	 width="49.7px" height="49.7px" viewBox="0 0 49.7 49.7" style="enable-background:new 0 0 49.7 49.7;" xml:space="preserve">
<style type="text/css">
	.st0{fill:#EF4D4D;}
</style>
<g>
	<path class="st0" d="M0,26.7c0-1.1,0-2.2,0-3.3c0.1-0.6,0.1-1.2,0.2-1.8C1,15.8,3.5,10.9,7.7,6.9c3.6-3.4,7.9-5.6,12.8-6.4
		c0.9-0.2,1.9-0.3,2.8-0.4c1,0,2.1,0,3.1,0c0.6,0.1,1.2,0.1,1.8,0.2C34,1.2,39,3.6,43,7.9c5.4,5.8,7.6,12.7,6.6,20.5
		c-0.7,5.8-3.3,10.7-7.6,14.7c-5.8,5.4-12.7,7.6-20.5,6.5c-5.8-0.7-10.7-3.3-14.7-7.6c-3.4-3.6-5.5-7.8-6.4-12.7
		C0.2,28.5,0.1,27.6,0,26.7z M22,24.1c1.8-0.9,2.6-2.4,2.6-4.4c0-2.2-0.8-3.9-2.7-5c-1.1-0.6-2.3-0.8-3.5-0.9c-3.7,0-7.4,0-11,0
		c-0.1,0-0.1,0-0.2,0c0,7.4,0,14.7,0,22.1c0.2,0,0.4,0,0.6,0c2.8,0,5.6,0,8.4,0c1,0,2,0,3-0.1c3.7-0.3,6.1-2.8,6.2-6.4
		c0.1-2.3-0.9-4.4-3.1-5.3C22.1,24.2,22.1,24.1,22,24.1z M42.9,28.6c-0.1-1.3-0.1-2.5-0.3-3.6c-0.6-2.9-2.2-4.9-5.2-5.7
		c-1.3-0.3-2.6-0.4-3.9-0.2c-3,0.5-5.1,2.1-6.1,5c-0.7,2.1-0.6,4.2-0.2,6.3c0.4,1.7,1.4,3.1,2.9,4c2.2,1.4,4.6,1.7,7.1,1.2
		c2.1-0.4,3.6-1.6,4.7-3.4c0.3-0.5,0.4-1,0.7-1.6c-1.5,0-2.8,0-4.2,0c-0.1,0-0.3,0.1-0.3,0.2c-0.6,1-1.5,1.5-2.7,1.6
		c-2.3,0.1-4.2-1.1-4.2-3.9C35.1,28.6,38.9,28.6,42.9,28.6z M39.3,14.8c-0.1,0-0.1-0.1-0.2-0.1c-2.8,0-5.7,0-8.5,0
		c-0.3,0-0.3,0.1-0.3,0.4c0,0.5,0,0.9,0,1.4c0,0.4,0.1,0.6,0.5,0.6c2.7,0,5.3,0,8,0c0.2,0,0.3,0,0.5,0
		C39.3,16.2,39.3,15.5,39.3,14.8z"/>
	<path class="st0" d="M38.4,25.7c0-2-1.5-3.3-3.5-3.3c-2.2,0-3.4,1.7-3.5,3.3C33.7,25.7,36,25.7,38.4,25.7z"/>
	<path class="st0" d="M12.3,26.2c2,0.1,4,0,6,0.2c1.5,0.1,2.3,1.1,2.3,2.4c0,1.8-0.7,2.9-2.3,3.2c-0.3,0.1-0.7,0.1-1,0.1
		c-1.7,0-3.3,0-5,0C12.3,30.2,12.3,28.2,12.3,26.2z"/>
	<path class="st0" d="M12.3,22.5c0-1.6,0-3.2,0-4.8c0.1,0,0.1-0.1,0.1-0.1c1.8,0,3.7,0.1,5.5,0.1c0.1,0,0.2,0,0.3,0
		c1.7,0.3,2.4,1.7,1.8,3.3c-0.4,0.9-1.2,1.2-2.1,1.3c-1.2,0.1-2.5,0.1-3.7,0.1C13.6,22.5,13,22.5,12.3,22.5z"/>
	<path class="st0" d="M38.4,25.7c-2.4,0-4.7,0-7,0c0.1-1.6,1.2-3.3,3.5-3.3C36.9,22.5,38.4,23.8,38.4,25.7z"/>
</g>
</svg>
