<?xml version="1.0" encoding="utf-8"?>
<!-- Generator: Adobe Illustrator 20.1.0, SVG Export Plug-In . SVG Version: 6.00 Build 0)  -->
<svg version="1.1" id="Capa_1" xmlns="http://www.w3.org/2000/svg" xmlns:xlink="http://www.w3.org/1999/xlink" x="0px" y="0px"
	 width="49.7px" height="49.7px" viewBox="0 0 49.7 49.7" style="enable-background:new 0 0 49.7 49.7;" xml:space="preserve">
<style type="text/css">
	.st0{fill:#EF4D4D;}
</style>
<g>
	<path class="st0" d="M24.8,49.7C11.1,49.7,0,38.6,0,24.8C-0.1,11.1,11,0,24.8,0c13.7,0,24.8,11.1,24.9,24.9
		C49.6,38.6,38.5,49.7,24.8,49.7z M24.8,35.9c4.6,0,9.2,0,13.7,0c0.1,0,0.2,0,0.3,0c0.5,0,1-0.4,1.1-0.9c0-0.2,0.1-0.4,0.1-0.5
		c0-6.4,0-12.8,0-19.2c0-0.1,0-0.2,0-0.3c-0.1-0.5-0.4-1-1-1.1c-0.1,0-0.3,0-0.5,0c-9.2,0-18.3,0-27.5,0c-0.1,0-0.1,0-0.2,0
		c-0.6,0-1.1,0.4-1.2,1c0,0.1,0,0.3,0,0.4c0,6.4,0,12.8,0,19.2c0,0.1,0,0.1,0,0.2c0,0.5,0.4,1,0.9,1.1c0.2,0,0.3,0.1,0.5,0.1
		C15.6,35.9,20.2,35.9,24.8,35.9z"/>
	<path class="st0" d="M14.2,16.8c7,0,14.1,0,21.1,0c-0.1,0.1-10.3,9.1-10.6,9.3C21.2,23,17.7,19.9,14.2,16.8
		C14.2,16.9,14.2,16.8,14.2,16.8z"/>
	<path class="st0" d="M35.2,33.3c-6.9,0-13.8,0-20.7,0l0,0l0,0c2.4-2.2,4.8-4.3,7.3-6.5c0.1,0.1,0.1,0.1,0.2,0.2
		c0.7,0.6,1.3,1.1,2,1.7c0.2,0.2,0.5,0.3,0.8,0.4c0.4,0,0.7-0.1,0.9-0.3c0.7-0.6,1.3-1.2,2-1.8c0,0,0.1-0.1,0.2-0.1
		C30.3,28.9,32.7,31.1,35.2,33.3L35.2,33.3z"/>
	<path class="st0" d="M12.1,32.1c0-4.6,0-9.2,0-13.7l0,0l0,0c0,0,0.1,0,0.1,0.1c2.5,2.2,5.1,4.5,7.7,6.7
		C17.3,27.5,14.7,29.8,12.1,32.1z"/>
	<path class="st0" d="M29.7,25.1c2.6-2.3,5.2-4.5,7.7-6.8c0,0.2,0.1,13.4,0,13.7C34.9,29.7,32.3,27.4,29.7,25.1z"/>
</g>
</svg>
