<svg id="Layer_1" data-name="Layer 1" xmlns="http://www.w3.org/2000/svg" viewBox="0 0 209.62 209.62"><defs><style>.cls-1,.cls-10,.cls-7{fill:#fff;}.cls-1{stroke:#b7d8de;}.cls-1,.cls-10,.cls-12{stroke-miterlimit:10;}.cls-2{fill:#b7d8de;}.cls-3{fill:#f8b9ae;}.cls-4{fill:#f0504d;}.cls-5{fill:#424343;}.cls-6{fill:#efa49f;}.cls-11,.cls-8{fill:#f7f4f6;}.cls-9{fill:#2b292d;}.cls-10{stroke:#f7f4f6;opacity:0.49;}.cls-11{opacity:0.66;}.cls-12{fill:none;stroke:#fff;stroke-width:2px;}</style></defs><title>shannon</title><path class="cls-1" d="M107.05,212.29A104.31,104.31,0,1,1,211.36,108,104.43,104.43,0,0,1,107.05,212.29Z" transform="translate(-2.24 -3.17)"/><circle class="cls-2" cx="104.81" cy="104.81" r="98.64"/><polygon class="cls-2" points="6.29 104.81 6.24 106.52 6.51 107.06 6.29 104.81"/><path class="cls-2" d="M8,116.16l.17,1.48c0,.37.09.74.14,1l.08.46c.54-1.76.52.52.7-4.1-.3-1.59-.59-5.13-.88-4.65.06,1.16.36,2.85.43,4.57a10.85,10.85,0,0,1-.34-1.66A10.42,10.42,0,0,0,8,111.5,7.16,7.16,0,0,0,8,113.8a12.88,12.88,0,0,1,.28,2.5Z" transform="translate(-2.24 -3.17)"/><path class="cls-2" d="M9,119.57c-.16-.25-.32-.52-.42-.46C8.79,119.37,9.12,120.77,9,119.57Z" transform="translate(-2.24 -3.17)"/><path class="cls-2" d="M9.35,121.34c.21,1.85-.27,0-.29.2l.37,1c.17.51.4,1,.4,1s-.15-.55-.25-1.11Z" transform="translate(-2.24 -3.17)"/><path class="cls-2" d="M10.64,128.94l.24.83A1.92,1.92,0,0,0,10.64,128.94Z" transform="translate(-2.24 -3.17)"/><path class="cls-2" d="M11.55,132.62a11.66,11.66,0,0,0-.67-2.85v.12c.1,1.07-.45.17-.75-1.53s0-1.66-.54-3.15l.11,2.16A28.71,28.71,0,0,0,11.55,132.62Z" transform="translate(-2.24 -3.17)"/><path class="cls-2" d="M10.64,128.94c-.08-.31-.17-.63-.25-1A3.18,3.18,0,0,0,10.64,128.94Z" transform="translate(-2.24 -3.17)"/><polygon class="cls-2" points="7.7 121.95 7.46 121.02 7.36 121.27 7.7 121.95"/><path class="cls-2" d="M13.37,138.68c-.64-.26-1.26-4.35-1.74-4.72.69,2.4.94,4.42.55,4l1,2.59C13.68,141.34,13.63,140.11,13.37,138.68Z" transform="translate(-2.24 -3.17)"/><path class="cls-2" d="M14.11,144.19a4.18,4.18,0,0,1,.31.56A2.74,2.74,0,0,0,14.11,144.19Z" transform="translate(-2.24 -3.17)"/><path class="cls-2" d="M20.85,156.55s-.94-1.33-1.75-2.74L17.41,151a4.26,4.26,0,0,1,1.15,1.49c-.31-.65-.58-1.14-.81-1.56s-.4-.77-.58-1.1A22.41,22.41,0,0,1,16,147.52c.1-.82,1.75,3.79,1.54,2.39A38.71,38.71,0,0,0,15,145l-.7-2.57-.11,1c.27,1.06,1.14,1.88,1.08,2.63-.06.39-.5-.6-.82-1.29a80.61,80.61,0,0,0,3.06,7.63C19.23,155.67,19.44,154.57,20.85,156.55Z" transform="translate(-2.24 -3.17)"/><polygon class="cls-2" points="18.27 153.85 18.33 154.31 18.4 153.93 18.27 153.85"/><path class="cls-2" d="M24.74,162.73l-2.07-2.68a2.9,2.9,0,0,1-.24-.8c0,.17-.64-.52-.64-.35.43,1.57,2.32,3.44,3.38,4.9,2.62,4-.31,0,.44,1.71-.75-1.12-.76-1.18-1.73-2.77a28.11,28.11,0,0,0,5.07,6.86,8.08,8.08,0,0,0-1-1.45l1.32,1.45a30.79,30.79,0,0,0-1.69-2.72C26.94,165.82,26,164.58,24.74,162.73Z" transform="translate(-2.24 -3.17)"/><path class="cls-2" d="M21.57,157.62a6.76,6.76,0,0,1,.86,1.62A3.72,3.72,0,0,0,21.57,157.62Z" transform="translate(-2.24 -3.17)"/><path class="cls-2" d="M29.58,170.39a6.27,6.27,0,0,0-.64-.79A6.79,6.79,0,0,0,29.58,170.39Z" transform="translate(-2.24 -3.17)"/><path class="cls-2" d="M28.79,168.56l1.42,1.88-.42-.86C29.58,169.35,28.84,168.46,28.79,168.56Z" transform="translate(-2.24 -3.17)"/><path class="cls-2" d="M107.13,207.63a7.47,7.47,0,0,0-2.91-.3c.22-.25,2.6-.08,3.7-.27-2.42-.11,0-.27-.58-.48-1.34,0-2.31,0-3.3.05a20.64,20.64,0,0,1-3.45-.06c.14-.05.1-.16-.27-.27a61.8,61.8,0,0,1-12.57-1.48c-3.16-.76-5.54-1.19-9-2.11a96.84,96.84,0,0,1-32.33-16.79l-1.69-.75c-.37-.53-2.31-1.94-1.86-1.93a15.85,15.85,0,0,0,1.66,1.41,39.31,39.31,0,0,0-3.7-3.37c-1.38-1.24-2.84-2.51-3.94-3.71.2.32.29,1-.44.33.55-.17-2.68-2.77-2.88-3.88-2-2.55-.41.2-2.57-2.42-.46-.08,2,2.55,2.26,3.17-.88-.65-1.94-2.4-2.08-2.08,3.4,4.31,11,11.12,18,15.7l-.88-.28c.9.58,1.92,1.26,3,2l3.37,2.16c1.1.76,2.26,1.4,3.25,2.06l2.61,1.74c-.3-.3,1.09.45,2.51,1.17s2.94,1.3,2.77.91a25.05,25.05,0,0,0,2.6,1.36l.46,0c2,.81,1.59.95,3.94,1.85-1.43-.85.27-.23,1-.22,1.31.59,2.73,1.24,4.13,1.81l4,1.52a4.38,4.38,0,0,0-1.18-.64c1.64.56,1.42.24,1.89.26,1.63.36,1.38.65,1.26.79,3,.83,4.45.41,6.67,1l-.74-.4c.78.12,1.52.27,2.25.4l2.2.35,2.27.36c.78.11,1.6.15,2.47.2,1.66.49-2.89.13-4.34,0,.7.15,2.19.4,2.66.53l2.81-.1c1.05,0,2.15-.05,3.08-.14C101.48,207.48,105.93,207.58,107.13,207.63Z" transform="translate(-2.24 -3.17)"/><path class="cls-2" d="M97.39,207.34c-.45,0-.81,0-1,0,.34,0,.66,0,1.17.08C97.58,207.43,97.51,207.38,97.39,207.34Z" transform="translate(-2.24 -3.17)"/><path class="cls-2" d="M107.13,207.63l.07,0C107.55,207.64,107.45,207.63,107.13,207.63Z" transform="translate(-2.24 -3.17)"/><path class="cls-2" d="M87.32,204.72l.44.1.56.11Z" transform="translate(-2.24 -3.17)"/><path class="cls-2" d="M84.52,205.32c-.64-.25-1.54-.54-2.55-.89C82.23,204.64,82.45,204.77,84.52,205.32Z" transform="translate(-2.24 -3.17)"/><path class="cls-2" d="M64.43,198c-.62-.23-.31,0-.76-.11C64.89,198.5,65.35,198.61,64.43,198Z" transform="translate(-2.24 -3.17)"/><path class="cls-2" d="M101.22,207.7s.67,0,1.33,0h1.33l1,0-1.82,0c-.46,0-.91,0-1.25,0Z" transform="translate(-2.24 -3.17)"/><path class="cls-2" d="M152.8,195.23c-1.11.38-2.38,1-3.74,1.67s-2.77,1.31-4.1,1.83c-2.41,1-2.5,1.26-2.57,1.46s-.09.42-2.45,1.25l.6-.89-3.83,1.31c-1.36.43-2.79.81-4.19,1.24s-2.8.73-4.08,1.12-2.48.7-3.5,1c-.38,0-1.27,0,0-.27-3.27.6-1.54,1.29-6,1.63,4.08-.93-1.4-.21-.31-.76l.63-.13L117,206l-2.31.26a34.33,34.33,0,0,1-3.83.32c-.07.17,1.57.39-.93.47,1,0,.61.21.54.38l1.74-.14,1.42-.15a20.52,20.52,0,0,0,2.39-.34c1.46.11-1,.15.5.25,0,0,.52-.07,1-.2l1-.23c1.53-.14-1.54.42.83.16a7,7,0,0,1,1.41-.36l2.6-.46-.52.17c1.39-.34,3.41-.59,2.65-.82l.87,0c.43,0,.87,0,.87,0l-.34-.18c1.92-.39,3.27-.52,4.75-.74a31,31,0,0,0,5.45-1.53c-1.17.32-.15-.17.45-.42-2,.51-2.44.92-4.35,1.52-.35-.16,2.82-1.37.45-.85,2.66-.4,4.76-1.51,6-1.29a27.65,27.65,0,0,0,3.55-1.42c1-.47,2.05-.86,3.55-1.49l0,.12c.19-.31.81-.54,1.64-.87a10.71,10.71,0,0,0,2.84-1.49l-.78.35c-.39.18-.79.34-.79.34,0-.17.75-.56,1.76-1.11-.09.12-.09.12.28,0a7.7,7.7,0,0,1,1.82-1.26c.88-.51,1.73-1.09,1.91-1.23-1.33.75-2.9,1.79-4.47,2.69C151.78,196,151.42,195.88,152.8,195.23Z" transform="translate(-2.24 -3.17)"/><path class="cls-2" d="M121.93,206.47s.25-.06.5-.15l.5-.16A6.33,6.33,0,0,0,121.93,206.47Z" transform="translate(-2.24 -3.17)"/><path class="cls-2" d="M165.33,188c1.7-1.13-.3.53,1.33-.48.76-.73.23-.44-.32-.16s-1.13.5-.4-.21a26.49,26.49,0,0,0,3.16-2.64c-.61.71,0,.69.39.52.57-.55,2-1.59,3-2.45-2.66,2,2-1.93-.42-.18a5.94,5.94,0,0,1,1.26-1.44,16.36,16.36,0,0,1,2-1.81c0,.18-.71.86-1.31,1.44-.28.71,1.63-1.32,2.18-1.44.25-.31.58-.69,1-1.12l1.22-1.44c.87-1,1.86-2.1,2.62-3.12,1.57-2,2.6-3.47,1.4-2.63a19.74,19.74,0,0,0-2,2.41c2.23-2.35.3.23.21.53-1,1-2.51,2.83-2.31,2.27l1.33-1.78a113.49,113.49,0,0,1-18.82,16s.75-.46,1.47-1l1.43-1a14.86,14.86,0,0,1-2.6,2.14l.86-.27c.43-.13.85-.29.85-.29-.86.56-1.65,1.12-1.67.94-.94.84-.4.63.32.37-2.19,1.49-2.62,1.6-4.25,2.87a15.07,15.07,0,0,0,3.55-2.14,44.48,44.48,0,0,1,3.84-2.6Z" transform="translate(-2.24 -3.17)"/><polygon class="cls-2" points="155.21 190.35 156 189.62 154.66 190.53 155.21 190.35"/><path class="cls-2" d="M158.36,191.79c.1.06-.42.45-.33.5C159.79,191.26,159.5,191.27,158.36,191.79Z" transform="translate(-2.24 -3.17)"/><path class="cls-2" d="M178.12,177.28l1.76-2-1.25,1.18C178.74,176.53,178.33,177,178.12,177.28Z" transform="translate(-2.24 -3.17)"/><path class="cls-2" d="M188.75,162.21a50.39,50.39,0,0,1-5.47,7.49c-1,1.78,1-.38.71.48,1.32-1.57.76-1.69,2-3.41.66-.49,1.77-2.55,2.95-4.18C188.69,162.72,188.59,162.65,188.75,162.21Z" transform="translate(-2.24 -3.17)"/><path class="cls-2" d="M195.89,151.85c.78-1.48,1.22-3.13,1.91-4.28a5.4,5.4,0,0,1-.74,2.07c.6-.43.72-1.7,1.67-3.27-.09.14-.42.72-.29.22a28.89,28.89,0,0,0,1.27-3.47c.26-.76.53-1.69,1.56-4.42.18-.83.44-1.62.15-1.57,1.19-3.1.79-1.47,2.06-5.27-.17.12-.8,1.3-1.11,1.19a40.28,40.28,0,0,0,1.41-5.24,27.83,27.83,0,0,1,.78-3.82,14.38,14.38,0,0,1-.27,1.83c.51-.38.49-3,.78-4.94l.35.24c.08-.92.2-2.18.28-3.5a28.42,28.42,0,0,1,.4-3.84l.15.54c0-4.73.12-10.25-.41-14.26l.07-2.17c-.49-2.74-.34-1.37-.23.19s.08,3.31-.35,1.31c.31-.33.24-1,0-2.05a19.67,19.67,0,0,1-.63-3.9c.08-1.51.54,3.14.65,1.46-.45-.64-.27-1.66-.69-3.3.39.3-.57-3.46,0-2.51l-.26-.89c-.16-.53-.42-1.24-.65-1.94l-1-2.8a19.65,19.65,0,0,0-1-3.79c.86,3.05-.71-.7.11,2.76a80.61,80.61,0,0,1,2.21,9.38c.36,1.77.51,3.62.75,5.41s.25,3.55.35,5.16c.53.68.12,4.15.53,5.17-.14.15-.26.64-.42.8,0,4.16.28-1,.42,0,0,1.84-.3,3.3-.46,3.12-.11,3,.13.35.31,1.88l-.65,1.91c-.09,2.32-.38,4.82-.67,7.43s-.8,5.32-1.44,8a81.73,81.73,0,0,1-5.22,15.75s.16-.15.3-.3l.29-.31c-2.06,4.32-2.7,7.68-5.43,11.06l-.5,1.41c.27-.77-.82.48-.37-.73-.54,1.21-1.4,2.3-2.05,3.49l1.42-1.94a10.15,10.15,0,0,1-2.33,3.38c-.87,1.57-.46,1.21.25.39s1.68-2.15,2-2.42c.58-1.14,1-2,1.42-2.67a16.67,16.67,0,0,1,1.2-1.68,17.17,17.17,0,0,0,2.55-4.24C197.54,149.14,196,152.1,195.89,151.85Z" transform="translate(-2.24 -3.17)"/><path class="cls-2" d="M192.17,157c-.14.29-.23.51-.29.68C192,157.41,192.08,157.19,192.17,157Z" transform="translate(-2.24 -3.17)"/><path class="cls-2" d="M201.78,79.67c-.11-.36-.22-.8-.42-1.36S201.44,78.59,201.78,79.67Z" transform="translate(-2.24 -3.17)"/><path class="cls-2" d="M188.91,162.58h0v0Z" transform="translate(-2.24 -3.17)"/><polygon class="cls-2" points="185.93 161.82 186.71 160.73 186.46 160.84 185.93 161.82"/><path class="cls-2" d="M197.09,66.21l-.16.06C197,66.36,197.1,66.38,197.09,66.21Z" transform="translate(-2.24 -3.17)"/><path class="cls-2" d="M174.5,35l.6.58A6.16,6.16,0,0,0,174.5,35Z" transform="translate(-2.24 -3.17)"/><path class="cls-2" d="M88.4,10.75c-1.24.24-2.65.65-4,1l-1.89.57c-.58.2-1.1.42-1.53.6l.13-.21c-1.28.43-5.36,1.91-2.6,1.4l.61-.32a8.23,8.23,0,0,1,2.56-.67,12.5,12.5,0,0,0,2.14-.21c1.44-.37,2.54-.82,3.62-1.2a18.16,18.16,0,0,1,3.45-.81c1.15-.22,1,0,.68.16,2.62-.34,3.6-.91,5.41-1.21.43.6,2.44.36,4.87,0s5.28-.53,7.23,0c2.49-.08,5.79.25,9,.34-1.71.1,3,.4,2.23.67a3.9,3.9,0,0,1,1.83,0c.89.14,2,.37,3.09.6l1.61.32c.51.12,1,.23,1.42.3.85.15,1.48.19,1.67,0,2.07.6,2.11.62,2.24.64a21.08,21.08,0,0,1,2.7.83c0,.1-.84-.13-1.16-.2a11.69,11.69,0,0,0,2.38.6,5.53,5.53,0,0,1,2.05.79c3.74,1.34.72,0,3,.51a16.26,16.26,0,0,1,4.67,2.53c.5-.24,2.7.93,4.61,1.62-.42-.28-3-1.48-1.22-.89,2.17,1.06,3,1.49,3.92,1.82a24.15,24.15,0,0,1,3.7,1.74c1.75,1.56-3.93-2.24-.67.07-1.29-.62-2.41-1.2-3.42-1.62a17.5,17.5,0,0,0-2.61-1c3.41,1.73,7.53,3.9,11.12,6.06,1.92,1.31-1.13-.45.39.57A41.33,41.33,0,0,0,165.92,29a28.54,28.54,0,0,1,3.65,2.69l-.7-.23a25.64,25.64,0,0,1,3.8,3.09l4.53,4.31c-.24-.44-.41-.74,0-.42-.24.2.74,1.11,2.07,2.35a27,27,0,0,1,2.09,2.13,22.1,22.1,0,0,1,1.9,2.38c.1-.48,2.62,2.25,4,4.14.39.74.15.69.06.74A10.59,10.59,0,0,0,185,47.35a20.38,20.38,0,0,1-2.26-2.11c.87.91,1.89,2.23,2.9,3.5s1.89,2.59,2.65,3.39l-.75-.52a20,20,0,0,0,2.09,2.55A10.92,10.92,0,0,1,191.57,57l-.38-.19c.92,1.58,1.89,3.23,2.77,4.95s1.76,3.45,2.49,5.21l1.15,2.56,1,2.49,1,2.33c.3.76.59,1.47.89,2.15.34.43-.19-2.53-.11-2.73-.72-1.62-1.35-2.87-1.94-4s-1.23-2.15-1.85-3.34l.33-.13c-.43-.48-2-3.28-1.4-1.6-1.16-1.85-.47-1.61-1.8-3.74.42,0,1.14,1.32,1.43,1.2l-.58-.93c-.28-.47-.6-.92-.6-.92.47.52-.55-1.21-.09-.7a41,41,0,0,1-2.58-4.16c-.36-.63-.71-1.26-1.13-2-.21-.35-.43-.71-.68-1.09s-.56-.76-.89-1.17l.65,1c.33.49.62,1,.62,1s-.32-.21-.59-.59l-1-1.23a16.88,16.88,0,0,0-2-3.46c-.64-.68-1.19-1.17-1.78-1.73s-1.19-1.21-2-2.14c.65.16-2.54-3.31-2.68-3.83a8.56,8.56,0,0,1-2-1.77,10.23,10.23,0,0,0-1.9-1.7c-1-.87-2.33-2.18-2.18-2.31.16.12.46.37.78.65l-.48-.47c-.24-.24-.5-.45-.5-.45s.12,0,.24.09c-.9-.79-1.1-.59-2.14-1.74.08-.07.71.48,1.25.89-2.35-2.19-4.67-3.12-6.54-5-.54-.15-3.55-2.27-3.13-1.46a6.48,6.48,0,0,0-2.51-2.18,8,8,0,0,1-2-1.17,12.79,12.79,0,0,0-2.33-1.36c2.54,1,.06-.09,2.3.8-1.53-1-4.08-2.06-6.91-3.51-.24-.22-.19-.31-.45-.54a13.64,13.64,0,0,1-3.4-1.47l0,.29c-1.91-1.06-4.75-2.06-6.83-3.16l-2.73-.42a24.26,24.26,0,0,0-5.68-1.88,41.35,41.35,0,0,0-5.38-.73,22.71,22.71,0,0,1-3.22-.81l1.46.08c-1-.18-2-.44-3-.64a6.77,6.77,0,0,0-2.41-.12c-2-.13-1.43-.46-2.91-.71-2.06.14-5-.28-7.68-.34s-5-.08-5.56.34c.83,0,2,0,3.43,0s3,.15,4.55.17c-.84.08-.2.26-1.37.25-1.58,0-2.78-.14-4-.19s-2.4,0-4,.07l.36-.55a21.77,21.77,0,0,0-4,.12c-.65.06-1.29.14-1.91.23s-1.24.23-1.85.34c-1.21.24-2.38.44-3.52.61A18.41,18.41,0,0,1,88.4,10.75Z" transform="translate(-2.24 -3.17)"/><path class="cls-2" d="M128.89,11.43l-1.1-.39-.76-.27-.35-.11.2.27A11,11,0,0,1,128.89,11.43Z" transform="translate(-2.24 -3.17)"/><path class="cls-2" d="M126.89,10.93c-.47-.06-.93-.1-1.35-.13a12.23,12.23,0,0,0,1.39.2Z" transform="translate(-2.24 -3.17)"/><path class="cls-2" d="M79.48,13a16.78,16.78,0,0,0-2.41.71A20.42,20.42,0,0,0,79.48,13Z" transform="translate(-2.24 -3.17)"/><path class="cls-2" d="M77,13.91l.56-.15c.28-.08.57-.13.57-.13l.14-.11-.64.18Z" transform="translate(-2.24 -3.17)"/><path class="cls-2" d="M24.77,54.25l-.86,1.64L23.32,57c-.16.31-.25.52-.25.52-.46.47-2.36,4.17-1.94,2.87-.73,2.1-3.18,6.18-1.89,4.85a90.07,90.07,0,0,1,9.48-15.69,123,123,0,0,1,13-14.66s-.35.36-.68.75l-.65.77a30.29,30.29,0,0,1,3.05-2.88l1.33-1.1,1.28-.94c.83-.61,1.62-1.2,2.42-1.89a27,27,0,0,0,2.62-2.32l-.3.78c.62-.4,1.19-.85,1.76-1.29l1.71-1.31c.57-.44,1.15-.87,1.77-1.27a13.17,13.17,0,0,1,2-1h-.37c.72-.41,1-.5,1.76-.91l-.33.09a17.86,17.86,0,0,1,2.43-1.46c.77-.4,1.56-.76,2.54-1.19.2.06-.86.51-1.44.85a9.28,9.28,0,0,0,1.69-.89c.65-.37,1.39-.78,2.14-1.12,1.25-.42.07.2-.07.33A45.91,45.91,0,0,1,72,16.56a33.74,33.74,0,0,0,4.44-2c.29-.23-1.31.2.41-.45a31.23,31.23,0,0,0-4.37,1.48c-1.34.6-2.63,1.21-4,1.88l.38-.17.39-.15c-1.93,1.55-1.73.58-5.1,2.45.79-.69,2.33-1.36,2.88-1.77A24.94,24.94,0,0,0,64.3,18.9c-.76.38-1.41.77-2,1.12a18.28,18.28,0,0,1-3.69,1.77l.28-.18a24.76,24.76,0,0,0-2.41,1.52c.33-.09,1.21-.55,1.81-.82a5.18,5.18,0,0,0-1.38,1.34c-1.14.3-1.2.91-2.81,1.75-.69.12,1.14-1,1.63-1.51L54,25.22a11.21,11.21,0,0,1-2.71,1.25c-1.25,1.15.89-.45-.06.58a38.82,38.82,0,0,0-5.73,4c-1.24.94-2.41,2.06-3.53,3.06s-2.07,2-2.82,2.81c1.06-1.07.18-.57,1.54-1.8-.52.41-2.11,2.13-2,2.29-2,2.2-4.72,4.9-6.68,6.93l.69-.48a13.14,13.14,0,0,1-1.22,1.57l-1.55,1.82c-.56.65-1.17,1.33-1.77,2.08S27,50.92,26.46,51.8l.06-.07c-.76,1.11-1,2.36-2.35,4.36C24.32,55.37,25.05,54.27,24.77,54.25Z" transform="translate(-2.24 -3.17)"/><path class="cls-2" d="M18.13,67.27l.29-1.35c-.67,1.33-1.09,3.17-.79,3a14.12,14.12,0,0,0,.93-2.31A1.33,1.33,0,0,0,18.13,67.27Z" transform="translate(-2.24 -3.17)"/><path class="cls-2" d="M10.33,93.79c0,.55.12.43.17.66.14-1.46.46-3,.7-4.5s.59-3,.9-4.39l.46-2,.51-1.72c.32-1.05.6-1.9.81-2.44.67-1.86.4-2.32,1.1-4.72,0,0,.15-.24.32-.48l.34-.47c.31-1.32,2.13-5,1.14-3.85a15.91,15.91,0,0,1-.72,2.22L16,71.9l-.92,2.49.11-.86a7.62,7.62,0,0,0-.89,3.06,9.45,9.45,0,0,1-.22,1.34c-.14.56-.36,1.29-.69,2.35L13,80.14c-.41,1.43-.71,2.52-1,3.56a33.23,33.23,0,0,1-.92,3.3s.2.07.23-.44.44-1.08.49-.71c-.69,4.44-.09-.72-1,2.29-.18,1.92-.63,4.67-.84,7.23s-.47,4.89-.72,5.94c.19-.89.31-.66.35.06s0,1.91,0,3c-.17,1-.23-.69-.35-1a24.59,24.59,0,0,0-.16,2.8c.26-1.3.55-.44.64,1.88.22-2.53.06-4.81.13-7.09,0-1.14,0-2.29.07-3.46S10.16,95.06,10.33,93.79Z" transform="translate(-2.24 -3.17)"/><path class="cls-2" d="M10.49,95.34a3.18,3.18,0,0,0,0-.89l-.25,2Z" transform="translate(-2.24 -3.17)"/><path class="cls-3" d="M144.24,100.25c0,29.09-27.77,49.93-49.57,49.93S55.28,132,55.21,97.5C55.15,67,72.88,44.83,94.67,44.83S144.24,71.16,144.24,100.25Z" transform="translate(-2.24 -3.17)"/><path class="cls-3" d="M105.95,168.81H93.08a1.66,1.66,0,0,1-1.66-1.66V145.39h16v21.93A1.48,1.48,0,0,1,105.95,168.81Z" transform="translate(-2.24 -3.17)"/><circle class="cls-4" cx="117.44" cy="109.21" r="7.81"/><polygon class="cls-4" points="125.92 109.21 125.95 109.19 125.85 109.12 125.92 109.21"/><path class="cls-4" d="M127.91,112l-.07,0,.31.24C128.31,112.11,127.8,112,127.91,112Z" transform="translate(-2.24 -3.17)"/><path class="cls-4" d="M127.93,111.89c.06-.1-.08-.13-.12-.15C127.92,111.77,127.79,111.92,127.93,111.89Z" transform="translate(-2.24 -3.17)"/><path class="cls-4" d="M123.59,105.16h0Z" transform="translate(-2.24 -3.17)"/><path class="cls-4" d="M121.46,104.86l0,.1c.42-.11.77.22,1.17.28l0,0a11.47,11.47,0,0,1,2.63,1.44l-.07,0c.06,0,.15,0,.19,0s0,0-.07,0c0,.28.52.4.51.59a.1.1,0,0,0,.15-.06,12.77,12.77,0,0,1,1.48,2.11s-.05.07-.12.08a3.12,3.12,0,0,1,.63,2.15c.08,0,.08-.08.16,0,.09-.26-.25-.42-.14-.66l.08,0c0-.17-.19,0-.12-.18s.1,0,.1,0a2,2,0,0,0-.4-1c.13-.13-.12-.35,0-.52-.09-.06-.11-.15-.22-.14a7.35,7.35,0,0,0-2.15-2.9c-.61-.15-.94-.82-1.59-1.08l0,0a1.85,1.85,0,0,1-.75-.28l-.26,0a7,7,0,0,0-4.64-.56,7.6,7.6,0,0,0-2.49.84,4.47,4.47,0,0,0-1.83,1.82s0,0,0-.07a6.94,6.94,0,0,0-.85,1.17l0,0c-.39,1.12-1.08,2.26-.91,3.44a7,7,0,0,0,.8,4.18l-.06,0a8.61,8.61,0,0,0,2,2.75c.86.9,2.22,1,3.27,1.47.67.48,1.69-.08,2.35.17a4,4,0,0,0,3.82-1.42,4.28,4.28,0,0,0,1.4-1.27,17.45,17.45,0,0,1,1.16-1.47c.05-.61.79-1,.87-1.72h-.08c.3-.18-.21-.58.15-.67v0c.2-.1-.37-.35-.15-.39l-.08,0c0-.15.1,0,.15-.12s-.16,0-.1-.12c.36,0-.06-.37.35-.37,0,.09.16-.13.24.07,0-.05,0-.32-.14-.3s-.34-.12-.48,0l.13,0c-.14,0-.07,0-.17.05,0,.2-.22.21-.31.34h0c.15.1.05.23,0,.3l-.08,0c-.16,0,.27.25,0,.16a4.1,4.1,0,0,1-.2,1.24c.08.09-.12.31.09.28-.25,0-.4.31-.45.42s0,0,0,0c-.36.08.12.36-.29.4.21.15-.25.3-.06.55a.23.23,0,0,1-.14-.06,6,6,0,0,1-.74.85c0,.35-.51.42-.49.79a1.47,1.47,0,0,0-.66.46v0c-.23.21-.56.41-.65.69-.22-.2-.31-.1-.47-.12-.12.22-.52.35-.79.56-.09-.11-.23.15-.31,0a2.88,2.88,0,0,1-2.89.21h0c-.13.09-.31.3-.46.41s0,0,0,0c-.19,0-.32-.21-.49-.22,0,0,0,0,0-.05-.18,0-.29-.23-.52-.14v-.05l-.14,0c0-.06.06-.15.11-.11a7.47,7.47,0,0,1-3.81-2.53h.08l-.27-.18a.09.09,0,0,1,.07,0c-.11-.39-.49-.64-.62-1,0,0,.11,0,.12,0-.29-.18,0-.49-.35-.49a.14.14,0,0,1,.12,0,4.2,4.2,0,0,1-.52-2.29c-.37-.66,0-1.4-.09-2.12l.06,0a5,5,0,0,1,1.11-2.57c.26-.3.34-.57.62-.86l.07,0c.23-.73,1.18-.75,1.56-1.38l0,.12c0-.2.39-.16.2-.4h.15c.26-.57.85-.22,1.3-.64V105a.53.53,0,0,1,.42-.16s0,0,0,.06c.53.14,1-.25,1.51-.27l0,.13c.24-.17.69-.05,1-.09l0,.06.17-.08v.12A10.59,10.59,0,0,1,121.46,104.86Z" transform="translate(-2.24 -3.17)"/><path class="cls-4" d="M125.22,106.79h0S125.21,106.79,125.22,106.79Z" transform="translate(-2.24 -3.17)"/><path class="cls-4" d="M126.9,112.89l0,0S126.91,112.88,126.9,112.89Z" transform="translate(-2.24 -3.17)"/><circle class="cls-4" cx="61" cy="109.21" r="7.81"/><polygon class="cls-4" points="69.48 109.21 69.52 109.19 69.41 109.12 69.48 109.21"/><path class="cls-4" d="M71.48,112l-.07,0,.31.24C71.88,112.11,71.37,112,71.48,112Z" transform="translate(-2.24 -3.17)"/><path class="cls-4" d="M71.5,111.89c.06-.1-.08-.13-.12-.15C71.49,111.77,71.35,111.92,71.5,111.89Z" transform="translate(-2.24 -3.17)"/><path class="cls-4" d="M67.16,105.16h0Z" transform="translate(-2.24 -3.17)"/><path class="cls-4" d="M65,104.86l0,.1c.42-.11.77.22,1.17.28l0,0a11.47,11.47,0,0,1,2.63,1.44l-.07,0c.06,0,.15,0,.19,0s0,0-.07,0c0,.28.52.4.51.59a.1.1,0,0,0,.15-.06,12.77,12.77,0,0,1,1.48,2.11s-.05.07-.12.08a3.12,3.12,0,0,1,.63,2.15c.08,0,.08-.08.16,0,.09-.26-.25-.42-.14-.66l.08,0c0-.17-.19,0-.12-.18s.1,0,.1,0a2,2,0,0,0-.4-1c.13-.13-.12-.35,0-.52-.09-.06-.11-.15-.22-.14a7.35,7.35,0,0,0-2.15-2.9c-.61-.15-.94-.82-1.59-1.08l0,0a1.85,1.85,0,0,1-.75-.28l-.26,0a7,7,0,0,0-4.64-.56,7.6,7.6,0,0,0-2.49.84A4.47,4.47,0,0,0,57.19,107s0,0,0-.07a6.94,6.94,0,0,0-.85,1.17l0,0c-.39,1.12-1.08,2.26-.91,3.44a7,7,0,0,0,.8,4.18l-.06,0a8.61,8.61,0,0,0,2,2.75c.86.9,2.22,1,3.27,1.47.67.48,1.69-.08,2.35.17a4,4,0,0,0,3.82-1.42,4.28,4.28,0,0,0,1.4-1.27A17.45,17.45,0,0,1,70.11,116c.05-.61.79-1,.87-1.72H70.9c.3-.18-.21-.58.15-.67v0c.2-.1-.37-.35-.15-.39l-.08,0c0-.15.1,0,.15-.12s-.16,0-.1-.12c.36,0-.06-.37.35-.37,0,.09.16-.13.24.07,0-.05,0-.32-.14-.3s-.34-.12-.48,0l.13,0c-.14,0-.07,0-.17.05,0,.2-.22.21-.31.34h0c.15.1.05.23,0,.3l-.08,0c-.16,0,.27.25,0,.16a4.1,4.1,0,0,1-.2,1.24c.08.09-.12.31.09.28-.25,0-.4.31-.45.42s0,0,0,0c-.36.08.12.36-.29.4.21.15-.25.3-.06.55a.23.23,0,0,1-.14-.06,6,6,0,0,1-.74.85c0,.35-.51.42-.49.79a1.47,1.47,0,0,0-.66.46v0c-.23.21-.56.41-.65.69-.22-.2-.31-.1-.47-.12-.12.22-.52.35-.79.56-.09-.11-.23.15-.31,0a2.88,2.88,0,0,1-2.89.21h0c-.13.09-.31.3-.46.41s0,0,0,0c-.19,0-.32-.21-.49-.22,0,0,0,0,0-.05-.18,0-.29-.23-.52-.14v-.05l-.14,0c0-.06.06-.15.11-.11a7.47,7.47,0,0,1-3.81-2.53h.08l-.27-.18a.09.09,0,0,1,.07,0c-.11-.39-.49-.64-.62-1,0,0,.11,0,.12,0-.29-.18,0-.49-.35-.49a.14.14,0,0,1,.12,0,4.2,4.2,0,0,1-.52-2.29c-.37-.66,0-1.4-.09-2.12l.06,0A5,5,0,0,1,56.9,108c.26-.3.34-.57.62-.86l.07,0c.23-.73,1.18-.75,1.56-1.38l0,.12c0-.2.39-.16.2-.4h.15c.26-.57.85-.22,1.3-.64V105a.53.53,0,0,1,.42-.16s0,0,0,.06c.53.14,1-.25,1.51-.27l0,.13c.24-.17.69-.05,1-.09l0,.06.17-.08v.12A10.59,10.59,0,0,1,65,104.86Z" transform="translate(-2.24 -3.17)"/><path class="cls-4" d="M68.79,106.79h0S68.78,106.79,68.79,106.79Z" transform="translate(-2.24 -3.17)"/><path class="cls-4" d="M70.47,112.89l0,0S70.47,112.88,70.47,112.89Z" transform="translate(-2.24 -3.17)"/><path class="cls-4" d="M83,125.46l9.16.57,14.52-.59a.4.4,0,0,1,.36.61c-1,1.53-4.11,5.26-11.6,5.26a18.2,18.2,0,0,1-12.86-4.89A.56.56,0,0,1,83,125.46Z" transform="translate(-2.24 -3.17)"/><polygon class="cls-4" points="80.84 121.62 80.79 121.58 80.66 121.68 80.84 121.62"/><path class="cls-4" d="M82.36,125.25s0,0,.07,0a.9.9,0,0,1,.12-.25,1.2,1.2,0,0,1,.2-.22c-.14-.06-.24.07-.27.19S82.45,125.26,82.36,125.25Z" transform="translate(-2.24 -3.17)"/><path class="cls-4" d="M82.24,125.32a.19.19,0,0,0-.06.29C82.11,125.51,82.37,125.39,82.24,125.32Z" transform="translate(-2.24 -3.17)"/><path class="cls-4" d="M89.09,130.71h0Z" transform="translate(-2.24 -3.17)"/><path class="cls-4" d="M91.4,130.83l0-.1c-.45.12-.86-.19-1.31-.22l0,0c-1.06-.34-2.09-.51-3.15-.92l.06,0c-.06,0-.15,0-.2,0s0,0,.06,0c-.13-.27-.68-.2-.74-.41a.1.1,0,0,0-.13.11c-.8-.38-1.61-.87-2.42-1.31,0,0,0-.09.05-.13a2.82,2.82,0,0,1-1-.61,5.47,5.47,0,0,1-.45-.46,1,1,0,0,1-.15-1c-.06-.08-.13.11-.16,0a.71.71,0,0,0,0,.69,2,2,0,0,0,.2.29l.07.09s0,0,0,.07l0,0-.07,0c.09.15.16-.11.22.08s-.08.06-.06.08a2.21,2.21,0,0,0,.91.6c0,.18.3.25.31.45.11,0,.18.07.27,0A13.88,13.88,0,0,0,87.19,130c.67,0,1.19.58,1.91.69a0,0,0,0,1,0,0,2.38,2.38,0,0,1,.83.17l.26-.07a14.77,14.77,0,0,0,5,.87,9.8,9.8,0,0,0,5.4-.77s0,0,0,.07a13.8,13.8,0,0,0,1.46-.52v0c1.06-.71,2.42-1.14,3.17-2.16a8.71,8.71,0,0,0,1.44-1.46,4,4,0,0,0,.59-1,.46.46,0,0,0-.23-.47,1.09,1.09,0,0,0-.55,0l-.52,0v-.06c-1.23.18-2.43-.1-3.66,0-1.27-.09-2.58.47-3.87.33-.8-.28-1.81.43-2.56.14a7.41,7.41,0,0,0-3.62.1l-.91.11c-1.39-.26-2.82.09-4.16-.34-.66.18-1.34-.36-2.06-.34l0,.08c-.24-.25-.59.29-.73-.07h0c-.12-.19-.34.4-.41.18l0,.09c-.17,0,0-.1-.14-.14s0,.16-.12.1c0-.36-.41.05-.39-.35.09,0-.13-.17.08-.24-.06,0-.33,0-.32.13s-.15.33,0,.48l0-.13c0,.14,0,.07.05.17.22,0,.24.23.39.32a0,0,0,0,1,0,0c.12-.15.26,0,.34,0l0,.08c0,.16.27-.29.19,0a10.93,10.93,0,0,1,1.46,0c.08-.1.38,0,.28-.17a.77.77,0,0,0,.62.31s0,0,0,0c.25.3.33-.25.56.12.05-.25.45.11.61-.17a.2.2,0,0,1,0,.15c.45,0,.94.15,1.32.19.34-.2.78.15,1.08-.13a1.56,1.56,0,0,0,.93.13l0,0A2.13,2.13,0,0,0,92,126.4c.05.13.06.19.19.23a1.53,1.53,0,0,1,.29.09c.24-.14.73-.12,1.1-.26.06.13.31-.07.33.12a6.21,6.21,0,0,1,3.45-.1h0c.14-.11.3-.35.44-.5,0,0,0,0,0,0,.2,0,.4.14.6.09,0,0,0,0,0,.06.19-.09.4.14.62,0v.05l.14-.08c0,.06,0,.16-.08.14,1.75,0,3.54-.41,5.34-.44l-.06.06.34-.12a.08.08,0,0,1,0,.06,7.35,7.35,0,0,0,1.33-.1s-.06.1,0,.13c.23-.11.21,0,.27,0s0,0,.18-.16a.48.48,0,0,1-.09.13.22.22,0,0,1,.3.09c.05.11,0,.2-.1.3l-.12.16c-.06.09-.14.17-.21.25a5.73,5.73,0,0,1-.46.47c-.27.76-1.09,1.07-1.57,1.71l0-.06a7.18,7.18,0,0,1-2.72,1.42c-.41.13-.67.27-1.08.41l0-.08a1.93,1.93,0,0,1-1.09.28,1.93,1.93,0,0,0-1.13.23l0-.12c-.09.19-.46,0-.38.27l-.14-.08c-.48.45-1-.09-1.57.17l0-.07a.72.72,0,0,1-.49,0s0,0,.05-.05c-.52-.28-1.11,0-1.67,0l.07-.12c-.28.13-.76,0-1.12,0l0-.06-.19.06v-.12C92.29,130.87,91.85,130.92,91.4,130.83Z" transform="translate(-2.24 -3.17)"/><path class="cls-4" d="M87,129.5h0S87,129.5,87,129.5Z" transform="translate(-2.24 -3.17)"/><path class="cls-4" d="M83.6,126.06l-.05,0S83.58,126.05,83.6,126.06Z" transform="translate(-2.24 -3.17)"/><path class="cls-4" d="M81,124.53,90.91,121a1,1,0,0,1,1,0l1.9,1.24a1,1,0,0,0,1.39-.31l.47-.77a1,1,0,0,1,1.29-.37l11.56,3.72" transform="translate(-2.24 -3.17)"/><polygon class="cls-4" points="106.49 120.72 106.49 120.68 106.42 120.77 106.49 120.72"/><path class="cls-4" d="M108.44,124s0,0,0,.07l.23-.24C108.64,123.7,108.44,124.16,108.44,124Z" transform="translate(-2.24 -3.17)"/><path class="cls-4" d="M108.41,124c0-.08-.1,0-.12.08S108.37,124.15,108.41,124Z" transform="translate(-2.24 -3.17)"/><path class="cls-4" d="M103.78,122.59h0Z" transform="translate(-2.24 -3.17)"/><path class="cls-4" d="M102.44,122.65l0,.1c.28-.12.48.16.74.15l0,0a9,9,0,0,0,1.82.35l0,0s.09-.08.12-.07a.07.07,0,0,1,0,.05c.07.22.41,0,.44.17,0,0,.08-.08.08-.14a8.26,8.26,0,0,0,1.51.25.18.18,0,0,1,0,.14,1.74,1.74,0,0,1,1.29.28c0-.07,0-.09,0-.16-.1-.14-.3.1-.38-.07l0-.07c-.07-.07-.08.18-.14.05s0-.09,0-.1c-.2,0-.37-.16-.6,0,0-.17-.2-.07-.22-.24-.07,0-.11,0-.16.11a19.84,19.84,0,0,0-2-.59c-.41.2-.67-.28-1.08-.3v0a.64.64,0,0,1-.47-.07l-.16.09a16.15,16.15,0,0,0-2.6-1,6.21,6.21,0,0,0-2.91-.82s0,0,0-.05a1.42,1.42,0,0,1-.41-.13,1.54,1.54,0,0,0-.42-.13v0a1.72,1.72,0,0,0-1.24.47,2.13,2.13,0,0,0-.48,1,.94.94,0,0,1-1,.44,1.91,1.91,0,0,1-.57-.27l-.58-.32,0-.05a2.94,2.94,0,0,1-.84-.59,1,1,0,0,0-1.05-.37c-.77.12-1.27.84-2,.9-.52-.14-.84.68-1.34.52a2.94,2.94,0,0,0-2.35,1c-.8.11-1.39.79-2.23.72-.26.33-.81,0-1.17.19l0,.07c-.22-.17-.19.42-.39.12v0c-.13-.14,0,.46-.14.27l0,.09c-.08.06,0-.09-.12-.1s0,.15,0,.13c-.13-.33-.19.15-.33-.23,0,0-.13-.12,0-.24s-.18,0-.11.2,0,.35.18.45l0-.13a.72.72,0,0,1,.09.14c.12,0,.2.15.31.2h0c0-.17.11-.11.17-.1l0,.06c.08.14,0-.33.08-.07a3.47,3.47,0,0,1,.75-.34c0-.11.2-.06.08-.23a.37.37,0,0,0,.43.13s0,0,0,0c.24.22.08-.31.33,0-.06-.24.27,0,.24-.31a.34.34,0,0,1,.07.13c.24-.08.53-.09.74-.15.1-.27.45-.06.5-.39.14,0,.39.06.52-.11v0c.19-.09.42-.19.49-.41.15.25.22.17.33.22.08-.17.36-.23.51-.41.08.11.14-.11.22.07a2,2,0,0,1,1.84-.62v0c0-.13,0-.38.08-.54,0,0,0,0,0,0s.26.07.36,0a.09.09,0,0,1,0,.07c.07-.12.26.07.33-.11l0,0,.05-.09c0,.06,0,.15,0,.15a7.7,7.7,0,0,0,1.38-.61c.37-.26.57-.23,1,.13l-.06,0,.22,0a.11.11,0,0,1-.05,0c.15.23.46.22.65.37,0,0-.08.06-.07.11.25,0,.12.35.39.09a.21.21,0,0,1-.07.1l.35.15c.11,0,.22.13.39.2a1.54,1.54,0,0,0,1,.05,7.83,7.83,0,0,0,.53-.65,1.21,1.21,0,0,0,.25-.63l.05,0a.69.69,0,0,1,.5-.62,1.22,1.22,0,0,1,.8.1,4.7,4.7,0,0,0,.64.15l0,.08c.49-.17.74.53,1.25.34l-.06.1c.12-.14.23.14.29-.15l0,.11c.4-.28.45.33.87.2l0,.06c.11,0,.23,0,.27.05s0,0,0,0c.2.35.61.17.9.27l-.07.11c.19-.1.41.12.62.12l0,.05.12-.05,0,.12C101.93,122.61,102.19,122.59,102.44,122.65Z" transform="translate(-2.24 -3.17)"/><path class="cls-4" d="M105,123.32h0S105,123.32,105,123.32Z" transform="translate(-2.24 -3.17)"/><path class="cls-4" d="M81.54,125h0S81.53,125,81.54,125Z" transform="translate(-2.24 -3.17)"/><path class="cls-5" d="M88.12,98.48l-.56,2.85c-.15.84-.31,1.81-.4,2.82a7.42,7.42,0,0,0,.25,2.88,2.74,2.74,0,0,0,.65,1,3.33,3.33,0,0,0,1.07.65,9.82,9.82,0,0,0,1.33.31c.46,0,.9.1,1.32.1.84,0,1.57,0,2.08,0s.82,0,.82,0-.26.15-.73.38a6.48,6.48,0,0,1-.87.37,7.68,7.68,0,0,1-1.18.37,8,8,0,0,1-1.48.25h-.85a8.18,8.18,0,0,1-.91-.12,4.55,4.55,0,0,1-1.87-.88,4.29,4.29,0,0,1-1.26-1.8,6.05,6.05,0,0,1-.32-2,9.19,9.19,0,0,1,.21-1.82A12.43,12.43,0,0,1,86.48,101,11.14,11.14,0,0,1,88.12,98.48Z" transform="translate(-2.24 -3.17)"/><path class="cls-5" d="M100.89,74.45s8-6.06,18.35,1.92" transform="translate(-2.24 -3.17)"/><path class="cls-6" d="M131.56,74.31A39.77,39.77,0,0,1,134.62,79a51.73,51.73,0,0,1,2.53,5,49.35,49.35,0,0,1,2,5.26,56.22,56.22,0,0,1,1.51,5.47,54.21,54.21,0,0,1,.88,5.65,42.75,42.75,0,0,1,.23,5.76c0,1-.09,1.93-.17,2.89,0,.48-.07,1-.14,1.45l-.23,1.44-.23,1.44c-.09.48-.22.95-.33,1.42a26.68,26.68,0,0,1-.76,2.82c-.32.92-.58,1.86-1,2.77L137.82,123a46.66,46.66,0,0,1-2.89,5.08,51.92,51.92,0,0,1-3.48,4.67,54.51,54.51,0,0,1-4.05,4.13c-.71.64-1.41,1.31-2.15,1.91L123,140.57l-1.14.87-1.2.78-2.39,1.55c-1.61,1-3.32,1.83-5,2.75l-5.12,2.37,1-1.41c-.47,3.56-.89,7.12-1.43,10.67q-.38,2.67-.81,5.33t-.93,5.32q-.13-2.7-.18-5.4c0-1.8-.07-3.6-.07-5.39,0-3.59,0-7.18.05-10.77v-.86l1-.55,4.7-2.69c1.5-1,3-2,4.48-3l2.15-1.59,1.07-.79,1-.86,2-1.71c.66-.59,1.27-1.22,1.91-1.82,1.32-1.17,2.4-2.56,3.59-3.83a47,47,0,0,0,3.08-4.21,42.37,42.37,0,0,0,2.61-4.49l1.06-2.37c.35-.79.6-1.62.91-2.43s.51-1.66.76-2.49c.11-.42.25-.83.35-1.26l.26-1.28.27-1.28c.08-.43.12-.86.19-1.3.12-.87.27-1.73.31-2.61a50.16,50.16,0,0,0-.17-10.6c-.19-1.78-.45-3.56-.82-5.32-.17-.89-.37-1.77-.59-2.64s-.43-1.76-.66-2.64A77.72,77.72,0,0,0,131.56,74.31Z" transform="translate(-2.24 -3.17)"/><rect class="cls-7" x="121.12" y="85.46" width="23.3" height="2" transform="translate(-15.5 21.81) rotate(-10.24)"/><polygon class="cls-8" points="119.36 87 119.39 87.03 119.44 86.92 119.36 87"/><path class="cls-8" d="M122,89.87s0,0,0-.06l-.18.33C121.89,90.29,121.88,89.78,122,89.87Z" transform="translate(-2.24 -3.17)"/><path class="cls-8" d="M122,89.89c.1.05.12-.09.13-.14C122.16,89.86,122,89.75,122,89.89Z" transform="translate(-2.24 -3.17)"/><path class="cls-8" d="M130.07,88.37h0Z" transform="translate(-2.24 -3.17)"/><path class="cls-8" d="M132.09,87.53v-.11c-.36.27-.83.15-1.23.31l0,0a25.38,25.38,0,0,0-3,.78s0,0,0-.06-.09.13-.14.13,0-.05,0-.07c-.25-.14-.63.23-.79.12a.1.1,0,0,0,0,.16,23.09,23.09,0,0,0-2.48.68s-.06-.07-.06-.13a4.81,4.81,0,0,1-2.16.52c0,.08.09.07,0,.16.25.05.39-.27.63-.16v.08c.16,0,0-.19.17-.13s0,.1,0,.1a2.22,2.22,0,0,0,1-.32c.11.15.35-.06.5.07.07-.08.16-.08.17-.19,1.16-.12,2.31-.49,3.48-.69.49-.41,1.22-.16,1.85-.38a0,0,0,0,1,0,0,1.76,1.76,0,0,1,.76-.22L131,88a45.89,45.89,0,0,0,4.68-.64,17.57,17.57,0,0,0,5-1s0,0,0,.07c.48-.15,1-.12,1.41-.27v0a5.88,5.88,0,0,1,1.16-.33l1.42-.26c-.05-.27-.11-.53-.17-.78a3.56,3.56,0,0,0-.2-.58l-.16-.93-1,.18-.88.18-1.76.39V84c-1.13.34-2.3.21-3.43.52-1.21.07-2.37.79-3.59.82-.79-.17-1.64.66-2.39.47a8.12,8.12,0,0,0-4.2.88c-1.34.07-2.57.74-3.91.62-.57.32-1.18,0-2.07.15l0,.09.08,0c-.11.05,0,.29.11.43s.16.23,0,.34l0,0c-.15.16.47.22.27.34h.09c.05.15-.09,0-.11.16s.16,0,.13.09c-.35.08.15.36-.25.45,0-.08-.13.16-.25,0,0,.06,0,.32.2.26s.36.06.47-.12h-.14c.12-.08.06-.05.15-.09,0-.21.17-.27.22-.43h0c-.17-.07-.11-.23-.1-.31l.07,0c.14-.08-.34-.18-.07-.16l-.07-.22,0-.09a1.41,1.41,0,0,1,0-.17l.15,0c0-.1.14,0,.05-.2.14.2.51.19.63.16s0,0,0,0c.3.24.25-.32.55,0,0-.25.44,0,.52-.31a.21.21,0,0,1,.05.14c.42-.07.9-.07,1.26-.12.27-.27.76,0,1-.38a1.41,1.41,0,0,0,.88-.09l0,0a1.93,1.93,0,0,0,1-.4c.15.27.29.18.45.25.2-.17.67-.22,1-.4.08.12.28-.11.33.08a5.6,5.6,0,0,1,3.23-.54v0c.12-.13.23-.39.34-.55,0,0,0,0,0,.05.18-.07.4.08.58,0,0,0,0,0,0,.07.16-.12.4.09.58-.1l0,0,.12-.09c0,.06,0,.16-.06.15,1.65-.23,3.27-.86,5-1.12l-.05.07.31-.17a.08.08,0,0,1,0,.07,6.62,6.62,0,0,0,1.24-.27s0,.1,0,.13c.27-.23.52.14.61-.25a.13.13,0,0,1,0,.13,10.12,10.12,0,0,1,1.24-.32l.63-.11.3,0h.15a.93.93,0,0,1,.25-.16c.18.24.14,1,.45,1.51l-.07,0,0,.1a4.31,4.31,0,0,1-1.26.29,14,14,0,0,0-1.42.21c-.41,0-.67.17-1.07.25l0-.08c-.63.43-1.49,0-2.14.45l0-.12c-.08.19-.44,0-.35.3l-.14-.06c-.42.47-.91,0-1.46.34l0-.08a.65.65,0,0,1-.45.12s0,0,0-.06c-.54-.18-1,.22-1.56.3l0-.14c-.23.2-.71.14-1,.27v-.06l-.15.11,0-.12C132.89,87.26,132.5,87.44,132.09,87.53Z" transform="translate(-2.24 -3.17)"/><path class="cls-8" d="M127.76,88.45h0S127.77,88.44,127.76,88.45Z" transform="translate(-2.24 -3.17)"/><path class="cls-8" d="M121.94,88.86v.06S121.94,88.88,121.94,88.86Z" transform="translate(-2.24 -3.17)"/><path class="cls-7" d="M85,92.76l-1.11-1.67c.22-.15,5.53-3.59,14.6-1.13l-.52,1.93C89.81,89.69,85,92.73,85,92.76Z" transform="translate(-2.24 -3.17)"/><path class="cls-8" d="M85.13,93l.2.3,0,.06,0-.1v.06Z" transform="translate(-2.24 -3.17)"/><path class="cls-8" d="M85.41,93l0-.06,0,.33C85.53,93.4,85.32,92.93,85.41,93Z" transform="translate(-2.24 -3.17)"/><path class="cls-8" d="M85.46,93c.08,0,0-.1,0-.15C85.52,93,85.38,92.89,85.46,93Z" transform="translate(-2.24 -3.17)"/><path class="cls-8" d="M90.28,91.59h0Z" transform="translate(-2.24 -3.17)"/><path class="cls-8" d="M91.6,91v-.11c-.25.19-.54,0-.81.13l0,0a6.23,6.23,0,0,0-1.94.48s0,0,0-.06,0,.12-.08.12a.06.06,0,0,1,0-.07c-.18-.15-.39.19-.5.08a.13.13,0,0,0,0,.16,5.56,5.56,0,0,0-1.47.66s-.05-.06-.07-.12a2.27,2.27,0,0,1-1.21.65c0,.08.08.05.08.15.17,0,.15-.29.33-.21l0,.08c.11,0-.06-.18.07-.13s0,.09,0,.09c.17-.11.39-.12.51-.36.1.14.21-.07.33.05,0-.08.08-.08.07-.19.71-.14,1.38-.49,2.12-.6.29-.39.77,0,1.16-.22a.06.06,0,0,1,0,0,.69.69,0,0,1,.49-.11l.13-.14c1,.2,2,0,3,.22A10.18,10.18,0,0,0,97,92s0,0,0,.05c.26,0,.88.31,1.18.21l0,0a6.11,6.11,0,0,1,.12-.87c.05-.24.1-.39.15-.59s.14-.49.18-.71l0-.17c0-.05,0-.13-.06-.11h-.4c-.52-.14-.93-.24-1.41-.33s-1-.12-1.42-.16v-.06c-.76,0-1.44-.4-2.21-.31-.78-.19-1.59.33-2.36.18-.51-.27-1.07.44-1.54.2a2.87,2.87,0,0,0-2.64.71c-.87.09-1.5.82-2.33.87a.28.28,0,0,1-.18.16c-.09,0-.26.06-.21.15a.94.94,0,0,0,.21.63l.06-.06c-.11.26.47.11.23.38h0c-.1.17.46-.07.31.09l.08,0c.08.07-.08.07-.06.15s.14-.08.13,0c-.29.21.2.16-.13.39,0,0-.08.16-.22.1s.09.18.23.07.33-.12.39-.29l-.12.06c.09-.1,0-.06.12-.12s.09-.24.11-.37h0c-.17,0-.14-.09-.15-.15l.05-.06c.11-.11-.34,0-.09-.07a3.66,3.66,0,0,1-.43-.53c-.12,0,0-.08-.26-.05l.31-.07,0,0c.2.05.1,0,0,0s-.09-.08.08,0c-.11-.08-.08-.08-.06-.07s0,0,0-.13a.51.51,0,0,1,.08.13,6.77,6.77,0,0,1,.74-.22c.09-.28.46-.08.5-.41.15,0,.39.05.54-.11v0a.89.89,0,0,0,.54-.4c.14.26.21.18.33.25.1-.16.39-.2.58-.37.06.12.17-.09.22.1a2,2,0,0,1,2-.26h0c.07-.11.15-.35.23-.5,0,0,0,0,0,0s.25.13.36.09a.08.08,0,0,1,0,.06c.11-.09.24.13.37,0v.05l.08-.07c0,.06,0,.16,0,.14a23,23,0,0,1,3.18-.11l0,.06.22-.09a.1.1,0,0,1,0,.06c.25.14.55,0,.8.05,0,0-.05.09,0,.13.21-.14.27.28.42-.07a.2.2,0,0,1,0,.12,3.86,3.86,0,0,1,1.59.26.83.83,0,0,1,.37-.06A1,1,0,0,1,98,90l.27.05a.39.39,0,0,0,.05.23h-.07a1.65,1.65,0,0,1-.14.85l-.15.38c0,.06,0,.12-.07.17l-.19,0a5.27,5.27,0,0,0-.63-.09v-.08c-.49.19-.86-.47-1.39-.21l0-.1c-.1.16-.27-.11-.29.19l-.07-.1c-.36.32-.54-.26-1,0l0-.07c-.11,0-.23.07-.3,0s0,0,0,0c-.3-.32-.68,0-1-.06l0-.13c-.17.14-.47,0-.69,0v-.06l-.11.09v-.12C92.13,90.9,91.87,91,91.6,91Z" transform="translate(-2.24 -3.17)"/><path class="cls-8" d="M88.81,91.48h0S88.81,91.47,88.81,91.48Z" transform="translate(-2.24 -3.17)"/><path class="cls-8" d="M85.25,92.14a.18.18,0,0,1,0,0S85.25,92.16,85.25,92.14Z" transform="translate(-2.24 -3.17)"/><path class="cls-9" d="M80.58,31.41S78,42.05,94,40.07s48.66-4.62,57.73,9.68,4.51,19.42,12.23,24.56,11,.25,11,.25-2.27,7.78-10.59,6.54c0,0,.64,4.89,11.71,15.29,8.05,7.56,11.05,36.35.1,49.72-6,7.27-6.23,9.78-6.23,9.78s-.48,26.18-26.63,28.19c-16.17,1.24-19.22,2.05-27.61.17A10.5,10.5,0,0,1,107.43,174V147.36s36-12.49,34.48-44.89c-1.28-26.65-17.07-34.61-19-36.43-.63-.59-1-.89-1.42-1.26-1.74-1.42-7.4-3.78-20.62,3.38-16.65,9-32.52,21.93-51.19,16.28S37.55,53.94,44.15,49.1c13.57-9.95,33.33-7.59,33.33-7.59l2.59.84S77.12,34.2,80.58,31.41Z" transform="translate(-2.24 -3.17)"/><path class="cls-9" d="M80.16,30.89l-.27.21-.27.35a1.31,1.31,0,0,0-.22.37A6.64,6.64,0,0,1,80.16,30.89Z" transform="translate(-2.24 -3.17)"/><path class="cls-9" d="M78.47,35.8c0-.15.05-.07.08-.22l0-.46c0-.28,0-.66,0-1a7,7,0,0,1,.34-1.54,3.4,3.4,0,0,0-.45,1.81A10.64,10.64,0,0,1,78.47,35.8Z" transform="translate(-2.24 -3.17)"/><path class="cls-9" d="M78.45,36.67a4.37,4.37,0,0,0,.31,1.85C78.55,38.14,78.57,36.42,78.45,36.67Z" transform="translate(-2.24 -3.17)"/><path class="cls-9" d="M60.91,86.13l-.35,0Z" transform="translate(-2.24 -3.17)"/><path class="cls-9" d="M84.65,77.38l.18-.22a73.69,73.69,0,0,1-13.64,6.38l.31-.15a41.4,41.4,0,0,1-9.1,2.08l-2.29.19c-.76,0-1.53,0-2.29,0l-1.14,0c-.38,0-.76-.09-1.13-.13l-2.27-.28c-.74-.15-1.48-.34-2.23-.51a16.28,16.28,0,0,1-2.2-.61,17.51,17.51,0,0,1-4.13-2A15.43,15.43,0,0,1,38.84,75c.09.18.15.23.24.41a10.26,10.26,0,0,1-.79-1.81c0-.18.11.17.19.37a30.42,30.42,0,0,1-1-5,18,18,0,0,1,0-4.38c0-.75,0-1.09-.09-.68a30.77,30.77,0,0,1,1.7-7.37,20,20,0,0,1,3.83-6.71,35.84,35.84,0,0,1,13.7-7c.48-.11.57-.08.46,0a50.15,50.15,0,0,1,11.42-2c2-.11,3.92-.13,5.89-.06,1,0,2,.1,2.95.2a2.07,2.07,0,0,1,.24,0l.21.07.35.12.69.23.3.1a1.46,1.46,0,0,0,.26.08l-.09-.3-.13-.49c-.14-.53-.26-1.06-.35-1.59-.14-.32.09.92-.16.06A14.38,14.38,0,0,0,79,41l.05.2,0,0,0,.09.07.16a.79.79,0,0,1-.21,0l-.1,0-.27-.08-.54-.16a3.87,3.87,0,0,0-.64-.17L76.85,41l-1.16-.12.34-.05c-1.89-.15-.39.15-2.34,0-.77-.08.2-.09-.16-.1a52.39,52.39,0,0,0-11.89,1A45.35,45.35,0,0,0,56,42.82a12.57,12.57,0,0,0-2.31.9,35.82,35.82,0,0,0-9.45,4.75,8.72,8.72,0,0,0-2,1.87,16.24,16.24,0,0,0-1.53,2.24,26.53,26.53,0,0,0-2.14,4.94,30.16,30.16,0,0,0-1.46,10.63,19.33,19.33,0,0,0,3.27,10.25,18.39,18.39,0,0,0,8.9,6.19,31.52,31.52,0,0,0,11.7,1.49c.06,0,0,0,0,0a47.6,47.6,0,0,0,9.3-1.81l2.44-1c8.8-3.1,16.71-8.29,24.85-12.91a59.49,59.49,0,0,1,12.7-5.89,19.71,19.71,0,0,1,6.84-.91,8.76,8.76,0,0,1,3.26.82,5.23,5.23,0,0,1,1.36,1c.45.39.82.77,1.33,1.17a49.58,49.58,0,0,1,6.07,5,41.2,41.2,0,0,1,4.83,5.87,44.27,44.27,0,0,1,5.83,13.61,59.2,59.2,0,0,1,1.73,14.67,41.41,41.41,0,0,1-.87,7.43,39.22,39.22,0,0,1-2.34,7.27s-.1.11.1-.39a43.84,43.84,0,0,1-9.84,13.74v0a57.11,57.11,0,0,1-9.82,7.74c-1.79,1.12-3.64,2.16-5.53,3.12-.95.48-1.9.93-2.87,1.36l-1.45.62c-.52.21-.88.36-1.63.62l0,9c0,2.91.05,5.77.11,8.57v6.27c0,2.1-.2,4.32.58,6.41a10.61,10.61,0,0,0,6.91,6.68c1.08.31,2.17.5,3.26.71a48.38,48.38,0,0,0,13.35.27c4.44-.39,8.86-.73,13.19-1.16l0,.07a31,31,0,0,0,10-2.81,24.93,24.93,0,0,0,8.15-6.22,28.89,28.89,0,0,0,5.2-8.88A33.71,33.71,0,0,0,170,155.93a9.67,9.67,0,0,1,1-2.38c.43-.78.91-1.54,1.41-2.29,1-1.5,2.1-2.95,3.23-4.38a28.7,28.7,0,0,0,5.21-9.7,56.79,56.79,0,0,0,2-21.75,39.21,39.21,0,0,0-3.63-14.2,21.23,21.23,0,0,0-2-3.23,22.77,22.77,0,0,0-2.56-2.65,51.23,51.23,0,0,1-4.65-5,47.12,47.12,0,0,1-3.65-5A21,21,0,0,1,165,82.66c-.1-.22-.2-.5-.27-.67a5.58,5.58,0,0,1-.16-.54s0-.09,0-.13h.14l.28,0,.64.06a9,9,0,0,0,5.91-1.74,10.66,10.66,0,0,0,3.55-5.06l.43-1.28-.83,1.1a5.17,5.17,0,0,1-2.56,1.76,6.92,6.92,0,0,1-3.18.16,15.17,15.17,0,0,1-5.88-2.77,10.47,10.47,0,0,1-3.92-5.21c-.78-2.09-1.23-4.28-1.92-6.4a43.56,43.56,0,0,0-4.81-10.83,16.93,16.93,0,0,0-3.64-4.61,22.13,22.13,0,0,0-4.9-3.22,33.21,33.21,0,0,0-5.47-2.09,50.36,50.36,0,0,0-5.69-1.33,98.5,98.5,0,0,0-11.53-1.29,193,193,0,0,0-23.44.85l.3,0c-2.92.06-6.43,1.16-8.26.66h.31a6.8,6.8,0,0,0-1.22,0l-1.26,0a4.32,4.32,0,0,1-2-.34l-.27,0c-1.77-.68-.18-.17-1.49-.78a3.91,3.91,0,0,1-1.18-.67c0-.23-.86-1-1.42-2s-.72-2.13-.53-2.21c.16,1-.11-1.53.37.6a10,10,0,0,1-.21-2c0-.8.1-1.45,0-1.34-.1-.29,0-1.55-.54.31l.09.4c-.18.64-.09.49-.2.72a11.06,11.06,0,0,0,.29,2.64,5.9,5.9,0,0,0,.88,2s0,0,0,0a10.71,10.71,0,0,0,3.34,2.36,3.35,3.35,0,0,0,.35.22,6.45,6.45,0,0,0,1.57.37c.56,0,.95,0,.54.11.65.06,1.31.2,2,.19h2c1.35-.12,2.76-.21,4.13-.41,2.76-.34,5.6-.63,8.41-.86.78-.18,4.3-.3,3.06-.41,1.42.11,5.61,0,7.16,0a.85.85,0,0,1-.37,0c3,.23,3.57-.32,6.39.08.45-.27,5.11.27,6.72.17.34.09.45.15.32.18a53.4,53.4,0,0,1,14.46,3.29,19.93,19.93,0,0,1,5.39,2.8,22.17,22.17,0,0,1,4.07,3.9,69.83,69.83,0,0,1,4.76,9.26l-.17-.31a54.35,54.35,0,0,1,2,6.17A22.61,22.61,0,0,0,159.43,70,8.69,8.69,0,0,0,162.36,74a19.55,19.55,0,0,0,5.27,2.77,8.79,8.79,0,0,0,3.68.32,6,6,0,0,0,3.26-1.54,2.92,2.92,0,0,0,.74-.74l-1-.45a6,6,0,0,1-1.23,2.3,8.78,8.78,0,0,1-3,3,8.55,8.55,0,0,1-4.33,1.08l-.67-.05a7.47,7.47,0,0,0-.92,0,2.67,2.67,0,0,0-.42,0l.09.44a6.9,6.9,0,0,0,.25.89c.12.34.18.46.27.68l.27.57c.2.37.38.75.6,1.11a37.67,37.67,0,0,0,2.87,4.17,81.83,81.83,0,0,0,6.82,7.48,18.55,18.55,0,0,1,4.84,8.07l-.08-.16a49.37,49.37,0,0,1,1.91,4.79c0,.16,0,.15-.09-.19a53,53,0,0,1,1,6.65s0,0-.11-.38c.32,2.13.23,4.43.36,7l-.05.14,0,.81v.81c-.06,0-.15-.11-.11-1a49.83,49.83,0,0,1-2.35,14.54,30.06,30.06,0,0,1-3.16,6.69c-1.33,2-3.09,4-4.5,6.07a35.65,35.65,0,0,0-2.05,3.25,15.23,15.23,0,0,0-.85,1.76,3.78,3.78,0,0,0-.28,1c0,.31,0,.62-.05.93a35.43,35.43,0,0,1-1.44,7.38,28,28,0,0,1-7.8,12.69l.5-.54-.44.42c-.27.24-.6.61-1,.91l-1,.86-.49.36s.14-.16.29-.27a29.18,29.18,0,0,1-13.91,5s.74-.17.06-.14c-3.57.51-5.81.25-7.58.78-.17,0-.29-.07.07-.13-2.51.24-5,.49-7.57.66a47.28,47.28,0,0,1-7.6,0,37.92,37.92,0,0,1-3.77-.54,19.58,19.58,0,0,1-3.64-.93,10.11,10.11,0,0,1-5.24-5,9.73,9.73,0,0,1-1-2.93,20.1,20.1,0,0,1-.17-3.24l0-6.72c0-4.52,0-9.08-.12-13.47l.07,0-.07-4.71a70.31,70.31,0,0,0,13.35-7,54,54,0,0,0,11.48-10.1,40.2,40.2,0,0,0,6.82-11.17l.12-.08A44.82,44.82,0,0,0,142,106.48a39.11,39.11,0,0,0-.13-6.62,46.5,46.5,0,0,0-1-6.48l.2.57c-.38-1.29-1.15-5.12-1.29-4.54l-.39-1.47c-.28-.68-.53-1.35-.77-2L137.81,84c-.5-1.3-1.14-2.51-1.76-3.78a31.26,31.26,0,0,0-5.48-7.63l.38.29c-1.34-1.37-3-2.88-4.05-3.8.18.13.11.05.47.33a36.08,36.08,0,0,0-3.59-2.89c-1.24-.85-2.27-2.27-3.88-2.77a11.39,11.39,0,0,0-4.8-.53,23.22,23.22,0,0,0-4.71.89l.66-.32c-1.47.46-3.52,1.15-5.63,2a59,59,0,0,0-6,3l.18-.17L97.9,69.74l-.11-.08C93.24,72.23,89.1,74.9,84.65,77.38Z" transform="translate(-2.24 -3.17)"/><path class="cls-9" d="M38.48,74V74C38.56,74.18,38.53,74.1,38.48,74Z" transform="translate(-2.24 -3.17)"/><path class="cls-9" d="M81.79,38.08a2.91,2.91,0,0,1-.44-.54C81.34,37.62,81.63,37.92,81.79,38.08Z" transform="translate(-2.24 -3.17)"/><path class="cls-9" d="M55.21,82.75s-2.27.66-7.89,32.91c-.63,3.61-9,1.59-9,1.59s9.14,6.83,12.4,6c0,0-9.63.48-9.63,11.8,0,0-11.56.24-7.47,16.38s9.63,26.25,26.74,22.64a41.81,41.81,0,0,1,23.48,2.16A5.57,5.57,0,0,0,91.43,171V147.91a69.25,69.25,0,0,1-9.35-2.69C72.77,142,62.75,133.7,60.2,124.37,57,112.67,57.49,85.92,55.21,82.75Z" transform="translate(-2.24 -3.17)"/><path class="cls-9" d="M54.67,83.14v.1s.21.14.21.17S54.66,83.14,54.67,83.14Z" transform="translate(-2.24 -3.17)"/><path class="cls-9" d="M55.5,84.94c0-.07,0,0,0-.11s-.14-.3-.29-.58L55,83.87a.85.85,0,0,0-.1-.16C54.95,84.25,55.53,84.54,55.5,84.94Z" transform="translate(-2.24 -3.17)"/><path class="cls-9" d="M55.54,85.32a1.35,1.35,0,0,0,.25.79C55.67,85.95,55.67,85.18,55.54,85.32Z" transform="translate(-2.24 -3.17)"/><path class="cls-9" d="M61.9,129.45l-.08-.14A.49.49,0,0,0,61.9,129.45Z" transform="translate(-2.24 -3.17)"/><path class="cls-9" d="M69.82,138H70a28.25,28.25,0,0,1-4.91-4.84l.13.1A28.57,28.57,0,0,1,60.82,126a41.72,41.72,0,0,1-2-8.24c0,.09.06.11.09.2a5.16,5.16,0,0,1-.22-.88c0-.08.06.08.09.18,0-1.23-.55-3.56-.49-4.34-.05-.34-.15-.48-.18-.29-.5-4.52-.85-9.36-1.29-14,0-.22.06-.27.12-.21-.57-3.92-.67-8.06-1.17-12-.1-.14,0,.41-.16,0,.08,1.28.48,2.32.45,3.5L56,89.86c0,.85.21.15.19,1,0,.35-.1-.08-.09.08.19,1.81.25,3.7.55,5.4-.13.43.12,2,0,2.64a5,5,0,0,0,.23,1.11c.35,6.37.9,12.88,1.89,19.37.4,1.49.7,3.15,1.11,4.87a19.46,19.46,0,0,0,2.05,5.06s0,0,0,0l1.17,1.75L64.4,133l.87.85a36.28,36.28,0,0,0,9.77,8.4,39.12,39.12,0,0,0,5.87,2.86c2,.78,4.1,1.43,6.17,2.07.72.22,1.44.42,2.15.6l1.06.27.71.17-.06,5.6,0,5.83c0,3.86.09,7.77.22,11.77,0,0-.05.06,0-.18a4.93,4.93,0,0,1-1.45,3.37,5.57,5.57,0,0,1-3.2,1.59v0a4.79,4.79,0,0,1-2.27-.18l-2.35-.79c-1.59-.51-3.2-.95-4.84-1.3a34.94,34.94,0,0,0-9.71-.79,38.25,38.25,0,0,0-5.81.59c-1,.19-2,.35-3,.52a22.37,22.37,0,0,1-3,.34,21.53,21.53,0,0,1-3.05,0,9.3,9.3,0,0,1-1.52-.17c-.5-.09-1-.13-1.5-.26a16,16,0,0,1-5.47-2.51l.05,0a18.86,18.86,0,0,1-5.77-7.37,63,63,0,0,1-3.28-8.85c-.23-.79-.44-1.59-.64-2.39s-.46-1.6-.62-2.42-.41-1.62-.52-2.46-.27-1.66-.28-2.51a14.19,14.19,0,0,1,.08-2.52,11.42,11.42,0,0,1,.19-1.25l.35-1.22a8,8,0,0,1,3-3.93,10.94,10.94,0,0,1,4.68-1.62c.06-.8,0-1.49.08-2.24a13.14,13.14,0,0,1,.38-2.14,8.42,8.42,0,0,1,1.81-3.54,11.23,11.23,0,0,1,7.34-3.71l-.07-.46a6.77,6.77,0,0,1-3.35-.62,30.82,30.82,0,0,1-3.23-1.53c-1.06-.56-2.1-1.17-3.13-1.8-.5-.31-1-.65-1.62-1l-.89-.6-.46-.32s.15,0,.19,0l.57.1c.65.14,1.23.26,1.76.34s1,.13,1.47.16a11.18,11.18,0,0,0,2.7-.11,2.52,2.52,0,0,0,2.59-2.48l.22-1.34c.59-3.57,1.21-7.1,2.07-10.54.42-3.33,1.68-6.85,2.48-10.48l-.11.11c.53-1.24.4-3,1-3.69l0,.14c.35-.63,0-1.7.36-2.05l-.05-.14c.23-.83.13-.07.36-.69.07-.24-.12-.14.08-.62.35,0,.65-2,1.07-1.9-.19.42.43-.58.1.38l.4-.83.18-.37c.05-.07-.1,0-.09-.09s.17-.23.2-.32,0-.08-.08-.1h-.16a.27.27,0,0,0-.17,0,.86.86,0,0,0-.15.12V83c-.27.19-.17.16-.32.21-.54,1-.74,1.13-1.1,1.88,0,0,0,0,0,0A7,7,0,0,1,53,86.79l-.13.15c-.22.22-.07,1.34-.23.93-.58,2.26-1.22,4.85-1.78,7.39,0,.38-.45,1.94-.13,1.43a15.31,15.31,0,0,0-.95,3.17s0-.07,0-.17c-.57,1.3-.07,1.67-.67,2.88.21.25-.55,2.31-.39,3.09-.08.15-.14.19-.18.13-.44,2.3-1,4.84-1.36,6.79a21.69,21.69,0,0,1-.44,2.84,1.68,1.68,0,0,1-.43.94,4.44,4.44,0,0,1-.79.62,7.61,7.61,0,0,1-2.05.25c-.4,0-.82,0-1.25,0l-.63,0-.47,0-.56,0h.29c-.68-.08-1.39-.19-2.24-.38l-2.76-.63.48.38.67.48,1.26.88c.79.55,1.58,1,2.13,1.34a2.1,2.1,0,0,0,.23.27l.18.2a3.87,3.87,0,0,0,.41.36l1,.72a37.65,37.65,0,0,0,5.31,2.52,3,3,0,0,0,.9.35c.39.09.75.18.78.29l.81,0a7.14,7.14,0,0,0,.91-.12l-.16-1.07a12.72,12.72,0,0,0-4,1.26,10.83,10.83,0,0,0-3.39,2.67,11,11,0,0,0-2.11,3.81,13,13,0,0,0-.54,2.08,6.07,6.07,0,0,0-.15,1l-.05.52a1.71,1.71,0,0,1,0,.33h0s.05,0,.08.09a.13.13,0,0,1,0,.1s-.07,0-.16.08l-.24.09-.89.4c-.08,0-.08,0,.08-.08a9.58,9.58,0,0,0-2.95,1.24s0,0,.12-.17c-.38.36-.87.61-1.27,1a8.3,8.3,0,0,0-.62.61,7.14,7.14,0,0,0-.49.77l-.08,0-.19.34-.14.37s-.13-.13.09-.48a12.25,12.25,0,0,0-1.51,6.92,15.08,15.08,0,0,0,.16,1.76,13.19,13.19,0,0,0,.27,1.75c.26,1.15.48,2.31.83,3.42a60.11,60.11,0,0,0,5,13.12l-.22-.27.5.77.34.53.18.23s-.1-.05-.16-.12a17.88,17.88,0,0,0,4.76,5.16s-.35-.13-.11.08c.77.38,1.27.88,1.79,1.13a3.23,3.23,0,0,0,1.39.51c.06,0,.08.15-.09.1,4.48,1.7,9.49,1.37,14,.44,3.73-1.11,8.11-.94,12.11-.71l0,.06a34,34,0,0,1,7.82,1.58c.65.2,1.29.43,1.93.66a14.12,14.12,0,0,0,1.94.66,5.66,5.66,0,0,0,6.1-2.86,6,6,0,0,0,.64-3l.08-.06c-.31-3.8.28-8-.06-11.95l.11.27c-.17-.61.06-2.4-.23-2.16l.09-.7c-.39-2.68.18-4.92-.07-8.18l.07.18c0-.1,0-.2,0-.29a11.84,11.84,0,0,1-2.22-.49,1.88,1.88,0,0,1,.27,0c-2.58-.95-5.59-1.55-8.31-2.57h.35a28.05,28.05,0,0,1-5.28-2.36h.13l-.85-.39,0-.12A44.76,44.76,0,0,1,69.82,138Z" transform="translate(-2.24 -3.17)"/><path class="cls-9" d="M58.79,117.31v0C58.81,117.4,58.81,117.37,58.79,117.31Z" transform="translate(-2.24 -3.17)"/><path class="cls-9" d="M53.36,85.34l.12-.27A1.15,1.15,0,0,0,53.36,85.34Z" transform="translate(-2.24 -3.17)"/><path class="cls-2" d="M54.46,50.93s-.27.2-.71.57-1.05.9-1.74,1.56c-.35.32-.69.71-1.07,1.09s-.72.84-1.1,1.27-.72.93-1,1.44l-.5.76-.44.8a17.14,17.14,0,0,0-.8,1.63c-.25.55-.43,1.12-.64,1.65s-.3,1.1-.46,1.61-.21,1-.32,1.49-.21.9-.24,1.29-.09.73-.14,1c-.09.57-.16.91-.16.91s-.1-.32-.24-.88c-.07-.28-.16-.63-.23-1a7.38,7.38,0,0,1-.14-1.37,8.55,8.55,0,0,1,0-1.64,14.15,14.15,0,0,1,.24-1.84,16.1,16.1,0,0,1,.54-1.92,13.06,13.06,0,0,1,.86-1.88l.52-.9c.19-.29.41-.56.61-.83a13.83,13.83,0,0,1,1.32-1.49A13.65,13.65,0,0,1,50,53a12.85,12.85,0,0,1,3.61-1.9A5.92,5.92,0,0,1,54.46,50.93Z" transform="translate(-2.24 -3.17)"/><polygon class="cls-2" points="52.12 47.09 52.1 47.06 52.06 47.17 52.12 47.09"/><path class="cls-2" d="M54,50.58s0,0,0,.06l.16-.34C54.1,50.16,54.12,50.68,54,50.58Z" transform="translate(-2.24 -3.17)"/><path class="cls-2" d="M54,50.57c-.1,0-.1.1-.11.15C53.87,50.6,54,50.71,54,50.57Z" transform="translate(-2.24 -3.17)"/><path class="cls-2" d="M48,54.2v0A0,0,0,0,0,48,54.2Z" transform="translate(-2.24 -3.17)"/><path class="cls-2" d="M47.24,55.85l.08.08c0-.39.41-.55.58-.85v0c.32-.29.58-.66.85-1s.56-.64.87-1c0,0,0,0,0,.07s0-.14,0-.17,0,0,0,.07c.24,0,.37-.42.55-.37a.11.11,0,0,0,0-.15L52,51.33s.07.05.09.11a2.62,2.62,0,0,1,1.74-.78c0-.08-.09-.06,0-.16-.24,0-.33.28-.55.21v-.08c-.15,0,0,.19-.13.14s0-.1,0-.09c-.26.13-.57.18-.75.45-.13-.12-.28.12-.45,0,0,.09-.11.11-.09.22a5.41,5.41,0,0,0-1.3.78,13,13,0,0,0-1.2.95c-.14.56-.87.62-1.17,1.11l0,0a1.24,1.24,0,0,1-.4.53l0,.23a6.41,6.41,0,0,0-1.33,1.5c-.31.56-.68,1.14-1,1.75l-.48,1a5.52,5.52,0,0,0-.39,1.06c-.09.36-.15.64-.21,1a3.55,3.55,0,0,0,0,1.13s0,0-.06,0c0,.43-.14.76-.09,1.21h0a6.94,6.94,0,0,1,.18,1.52,2.88,2.88,0,0,0,.35,1.46A14.49,14.49,0,0,0,45,68.07l.13.45.08-.46a17.22,17.22,0,0,0,.22-2.1h.06a5.21,5.21,0,0,1,.32-1.4c.14-.47.27-.9.37-1.37a5.24,5.24,0,0,0,.32-1.49A4.38,4.38,0,0,1,47,60.27c.54-.43.24-1.48.85-1.83a3.44,3.44,0,0,0,.65-.69,9.19,9.19,0,0,0,1.22-2.34,7.59,7.59,0,0,0,1.07-1.29A3.9,3.9,0,0,1,52,53c.23-.51,1-.51,1.35-.93l-.07,0c.3,0,.12-.55.44-.37v0c.19.06-.08-.48.11-.36l0-.08c.09-.1.08.07.18,0s-.09-.13,0-.14c.24.27.2-.26.46.05-.05,0,.18.06.11.22a.17.17,0,0,0,.09-.27c-.09-.16-.12-.34-.31-.37l.06.12c-.11-.08-.07,0-.14-.1-.15.1-.28,0-.43,0h0c0,.18-.12.18-.19.21l-.07,0c-.13-.09,0,.36-.09.12a7.46,7.46,0,0,1-.82.83c0,.11-.23.2,0,.28a.56.56,0,0,0-.56.14s0,0,0,0c-.36-.07,0,.36-.4.24.14.2-.31.2-.19.49a.24.24,0,0,1-.12-.09c-.26.25-.6.48-.82.69,0,.34-.49.41-.42.78-.17.1-.46.24-.54.52v0a1.27,1.27,0,0,0-.37.86c-.29-.1-.31,0-.46.09,0,.24-.27.54-.34.84-.14,0-.09.23-.26.14a2.21,2.21,0,0,1-.18.6,3.28,3.28,0,0,1-.51.94c-.24.32-.47.64-.71.9v0c.05.15.21.36.29.52,0,0,0,0,0,0,0,.15-.28.21-.3.38,0,0,0,0,0-.05,0,.18-.26.23-.19.46h-.05l0,.14c-.06,0-.14-.07-.1-.12a10.2,10.2,0,0,0-.37,1c-.08.35-.14.7-.21,1.05l-.21,1.08c-.06.37-.09.73-.18,1l0-.06a.89.89,0,0,1,0,.16l0,.14a.09.09,0,0,1-.06,0A3.75,3.75,0,0,0,45.1,66s-.09-.07-.13,0c.15.3-.28.38.07.54a.16.16,0,0,1-.13,0A5.72,5.72,0,0,1,44.78,68l.65,0-.11-.55c-.46-.47-.33-1.2-.68-1.72h.07a3,3,0,0,1-.16-1.2c0-.41,0-.82,0-1.22a6.17,6.17,0,0,0,0-.92h.08c-.28-.63.47-1.11.28-1.77l.1.07c-.15-.13.14-.34-.15-.37l.11-.08c-.27-.51.39-.65.34-1.19l.05.06c0-.14,0-.3.11-.37s0,0,0,.06c.41-.28.31-.81.55-1.19l.09.11c0-.26.29-.52.37-.8l0,0v-.17l.11.06C46.93,56.47,47.05,56.15,47.24,55.85Z" transform="translate(-2.24 -3.17)"/><path class="cls-2" d="M49.72,53.17h0S49.71,53.18,49.72,53.17Z" transform="translate(-2.24 -3.17)"/><path class="cls-2" d="M53.74,50.78h.05S53.76,50.78,53.74,50.78Z" transform="translate(-2.24 -3.17)"/><path class="cls-2" d="M154.49,155.43a11.21,11.21,0,0,1,.78,1.33,15.5,15.5,0,0,1,1.37,3.86,11.2,11.2,0,0,1-.26,6,9,9,0,0,1-1.79,3,11.09,11.09,0,0,1-2.82,2.23,15.79,15.79,0,0,1-3.25,1.28l-.82.23-.82.15c-.55.09-1.08.2-1.61.24s-1.05.13-1.56.14l-1.49,0c-1,0-1.88-.06-2.72-.1s-1.6-.17-2.27-.26-1.25-.21-1.73-.3c-1-.19-1.5-.31-1.5-.31s.56,0,1.53-.08c.48,0,1.07,0,1.74-.07l2.24-.13c.82-.09,1.7-.13,2.62-.24s1.89-.24,2.88-.42c.5-.07,1-.2,1.48-.32s1-.26,1.48-.41a14.08,14.08,0,0,0,2.83-1.18,9.14,9.14,0,0,0,2.36-1.78,8.18,8.18,0,0,0,1.57-2.35,10.72,10.72,0,0,0,.7-2.64,14.9,14.9,0,0,0,.07-2.54,22.26,22.26,0,0,0-.6-3.87C154.67,156,154.49,155.43,154.49,155.43Z" transform="translate(-2.24 -3.17)"/><polygon class="cls-2" points="151.61 152.47 151.58 152.52 151.7 152.56 151.61 152.47"/><path class="cls-2" d="M154.22,156.11s0,0,.06,0l-.37-.22C153.79,156,154.3,156,154.22,156.11Z" transform="translate(-2.24 -3.17)"/><path class="cls-2" d="M154.22,156.21c0,.14.12.15.17.17C154.27,156.36,154.35,156.14,154.22,156.21Z" transform="translate(-2.24 -3.17)"/><path class="cls-2" d="M153.75,166.92v0S153.74,166.91,153.75,166.92Z" transform="translate(-2.24 -3.17)"/><path class="cls-2" d="M152.08,169.35l0,.11c.34-.48,1-.75,1.27-1.27v.06a6.23,6.23,0,0,0,1.21-1.84,10.33,10.33,0,0,0,.56-2.1s0,0,0,.07-.07-.17,0-.25,0,0,.05.06c.25-.27,0-.92.2-1.09,0-.09-.08-.13-.15-.09a11.61,11.61,0,0,0-.31-3.5c0-.06.07-.08.13-.07a15.76,15.76,0,0,1-.74-3c-.09,0-.05.12-.16,0,0,.33.35.52.27.84l-.08,0c0,.22.2,0,.15.24s-.1,0-.1,0a4.89,4.89,0,0,0,.39,1.31c-.15.13.07.48-.07.67.08.11.07.23.19.26a14.5,14.5,0,0,1-.21,4.76,2,2,0,0,1-.3,1.19c-.2.38-.47.72-.67,1.12l0,0a2.36,2.36,0,0,1-.59.89l-.1.31a14.29,14.29,0,0,1-2.64,1.76,11,11,0,0,1-3,1.13c-.6.15-1.18.28-1.76.36s-1.15.17-1.72.25-1.14.17-1.72.29-1.16.21-1.75.37c0,0,0,0,0-.06-.69.14-1.34.07-2,.16v0c-1.46.33-3.07.15-4.52.4l-1.21.21,1.19.12.48,0a26.56,26.56,0,0,0,6.12.73v.06a30.23,30.23,0,0,0,4.86,0,9.82,9.82,0,0,0,2.53-.54c.82-.31,1.62-.61,2.43-.86a3.27,3.27,0,0,0,1.55-.77,5.15,5.15,0,0,1,1.38-.95,5.91,5.91,0,0,0,3.15-4.92,6.76,6.76,0,0,0,.31-2.72c-.05-.91-.19-1.79-.21-2.71-.4-.77-.2-1.81-.64-2.69l-.06.06c.08-.42-.61-.56-.39-.9l0,0c.08-.25-.57-.18-.44-.37l-.09,0c-.13-.17.07-.07,0-.23s-.15.06-.17-.08c.29-.21-.33-.41,0-.65.06.11,0-.26.24-.06,0-.09-.22-.41-.34-.28s-.37.06-.37.32l.13,0c-.07.14,0,.09-.09.17.13.26,0,.39,0,.61h0c.2,0,.22.25.25.35l0,.07c-.1.13.43.13.15.18a8.11,8.11,0,0,1,.82,1.68c.13,0,.16.47.29.27a1.24,1.24,0,0,0,0,.86s0,0,0,0c-.19.4.36.33.1.72.25,0,0,.58.36.71a.17.17,0,0,1-.14.06,10.16,10.16,0,0,1,.07,1.67c.23.41-.1,1,.16,1.35a3.2,3.2,0,0,0-.25,1.15l0,0a5.07,5.07,0,0,0-.17,1.36c-.32,0-.34.22-.5.36a5.75,5.75,0,0,1-.48,1.3c-.15,0-.18.35-.35.25a4,4,0,0,1-1.3,1.69,6.43,6.43,0,0,1-2,1v0c-.11.17-.2.48-.32.69,0,0,0,0,0-.05-.23.15-.53.07-.76.21,0,0,0,0,0-.08-.2.18-.53,0-.75.29l0,0-.15.13c0-.06,0-.15.06-.17l-1.63.5c-.55.16-1.1.27-1.67.39a15.14,15.14,0,0,1-1.73.3,11,11,0,0,1-1.78.11l.09-.06-.46.12a.08.08,0,0,1,0-.06,13.36,13.36,0,0,0-1.75,0s.09-.09,0-.13c-.43.16-.66-.25-.89.1a.1.1,0,0,1,0-.13,14.94,14.94,0,0,1-3.52-.4,6.15,6.15,0,0,1-2.09-.24l0,.39a4.52,4.52,0,0,0,1-.17V173a35.39,35.39,0,0,1,4.12-.23,15.4,15.4,0,0,0,1.53-.18l0,.08a3.56,3.56,0,0,1,1.5-.16,3.42,3.42,0,0,0,1.52-.27l-.05.12c.13-.19.62,0,.51-.31l.19.06c.62-.46,1.26-.05,2-.47l0,.08a1.38,1.38,0,0,1,.62-.2s0,0-.05.07a4.85,4.85,0,0,0,2.13-.67l0,.15c.28-.27.94-.4,1.34-.68v.07l.17-.19.06.11A10,10,0,0,0,152.08,169.35Z" transform="translate(-2.24 -3.17)"/><path class="cls-2" d="M155.21,164.19h0S155.21,164.2,155.21,164.19Z" transform="translate(-2.24 -3.17)"/><path class="cls-2" d="M154.4,156.41a.49.49,0,0,1,0-.07S154.4,156.39,154.4,156.41Z" transform="translate(-2.24 -3.17)"/><path class="cls-2" d="M133.09,69.68s.52.37,1.39,1.09a41.88,41.88,0,0,1,3.4,3.18c.68.69,1.38,1.46,2.09,2.31L141,77.58,142.11,79a37,37,0,0,1,2,3.16c.33.55.63,1.13.91,1.71a18.1,18.1,0,0,1,.83,1.78,17.12,17.12,0,0,1,.68,1.86,16.83,16.83,0,0,1,.52,1.9c.29,1.31.42,2.49.63,3.66a32.73,32.73,0,0,0,.79,3.21,21.87,21.87,0,0,0,1.07,2.78,14.21,14.21,0,0,0,2.47,3.73,6.6,6.6,0,0,0,1.31,1.14,3.1,3.1,0,0,1-.43-.17,6.65,6.65,0,0,1-1.14-.66,10.6,10.6,0,0,1-1.56-1.35,13.71,13.71,0,0,1-1.65-2.12,16.75,16.75,0,0,1-1.47-2.82A22.94,22.94,0,0,1,146,93.42l-.78-3.56A21.54,21.54,0,0,0,144,86.43a16.5,16.5,0,0,0-.74-1.69c-.26-.56-.53-1.11-.84-1.64C141.88,82,141.28,81,140.66,80s-1.25-1.94-1.87-2.83-1.21-1.72-1.78-2.48c-1.13-1.52-2.11-2.77-2.81-3.64Z" transform="translate(-2.24 -3.17)"/><polygon class="cls-2" points="130.33 66.92 130.32 66.98 130.47 66.99 130.33 66.92"/><path class="cls-2" d="M133.16,70.47s0,0,0-.07l-.47-.11C132.7,70.52,133.18,70.31,133.16,70.47Z" transform="translate(-2.24 -3.17)"/><path class="cls-2" d="M133.21,70.57c0,.16.19.12.25.12C133.34,70.72,133.31,70.45,133.21,70.57Z" transform="translate(-2.24 -3.17)"/><path class="cls-2" d="M140.89,81.19l0,0S140.88,81.19,140.89,81.19Z" transform="translate(-2.24 -3.17)"/><path class="cls-2" d="M143,83.94l.12,0c-.46-.49-.63-1.22-1.05-1.76l.06,0c-.41-.76-.86-1.46-1.32-2.14l-1.51-2,.08,0c-.08,0-.19-.08-.23-.16s.06,0,.08,0c0-.41-.68-.82-.7-1.07-.08-.07-.16-.06-.18,0a35.38,35.38,0,0,0-2.63-3.17c0-.07,0-.11.07-.13a13.1,13.1,0,0,1-2.29-2.73c-.09,0,0,.15-.13.11.16.36.59.42.69.79H134c.12.23.18-.08.26.19s-.09,0-.07.08a5.54,5.54,0,0,0,1.09,1.17c-.05.2.35.46.34.71.14.07.21.19.33.17.55.76,1.11,1.52,1.69,2.27s1.16,1.52,1.67,2.32c.76.57,1.05,1.66,1.65,2.54l0,0a4.42,4.42,0,0,1,.7,1.05l.29.24.78,1.71c.28.56.52,1.14.77,1.71a17.66,17.66,0,0,1,1.27,3.54c.31,1.38.5,2.75.78,4.06A12.38,12.38,0,0,0,147,97.35s0,0-.08,0a16.87,16.87,0,0,0,1.1,2.09h0c.6.75,1.19,1.58,1.86,2.31a6.8,6.8,0,0,0,2.31,1.77,6.27,6.27,0,0,0,1.13.55l.85.32-.76-.53a13.06,13.06,0,0,1-3.65-4.46l.06,0a10.17,10.17,0,0,1-1-2.59c-.26-.89-.36-1.81-.65-2.7-.37-1.88-1-3.86-1.33-5.77a4.62,4.62,0,0,0-.66-1.88,7.51,7.51,0,0,1-.76-1.78,7.4,7.4,0,0,0-.58-1.66,11.3,11.3,0,0,0-.83-1.52,22,22,0,0,0-2.22-2.68,15.7,15.7,0,0,0-2-2.5,15.55,15.55,0,0,1-2-2.41c-.84-.55-1.27-1.67-2.14-2.36l0,.08c-.14-.44-.88-.33-.84-.76h0c0-.28-.64,0-.61-.23l-.08,0c-.21-.14,0-.1-.09-.24s-.12.11-.21,0c.19-.31-.53-.32-.3-.65.11.09-.08-.26.22-.14,0-.09-.4-.34-.47-.18s-.36.16-.24.43l.12-.08c0,.16,0,.09,0,.19.25.22.17.4.31.61h0c.22,0,.34.19.43.28V71c0,.17.49,0,.24.14a14.51,14.51,0,0,1,1.7,1.4c.15,0,.41.4.43.15,0,.29.35.72.5.86,0,0,0,0-.06,0,.08.49.53.15.54.67.23-.13.41.56.77.52,0,.07,0,.12-.08.14.45.51.89,1.12,1.27,1.56.51.21.69,1,1.2,1.11a4.17,4.17,0,0,0,.81,1.16l-.06,0a5.57,5.57,0,0,0,1.13,1.19c-.14.3,0,.46.1.71a13.94,13.94,0,0,1,1.08,1.29c-.07.14.28.36.13.49A9.44,9.44,0,0,1,145.67,87l0,0c.17.17.48.33.69.51,0,0,0,0-.06,0,.13.28,0,.64.16.92,0,0,0,0-.08,0,.17.25,0,.6.24.87l0,0,.11.19c-.06,0-.16,0-.16-.1.2,1.32.48,2.65.81,4l.59,2,.27,1,.33,1-.09-.08.29.47a.08.08,0,0,1-.08,0,9,9,0,0,0,.87,1.89s-.13-.05-.12,0c.38.37.18.83.62.86a.09.09,0,0,1-.12.05,20.4,20.4,0,0,0,2.71,3.28l.64.32.19-.44a10.4,10.4,0,0,1-2.49-1.39l0,0a10.58,10.58,0,0,1-2.9-3.69c-.29-.59-.55-1-.82-1.56l.07,0c-.73-.92-.58-2.27-1.19-3.29l.13,0c-.22-.13-.11-.69-.37-.56l0-.22c-.55-.69-.14-1.45-.59-2.34l.08,0a1.65,1.65,0,0,1-.19-.73s0,0,.06.06a6,6,0,0,0-.76-2.45l.16,0c-.28-.34-.44-1.09-.73-1.56H144l-.19-.22.11-.06A17.28,17.28,0,0,0,143,83.94Z" transform="translate(-2.24 -3.17)"/><path class="cls-2" d="M139.2,77.91h0S139.21,77.92,139.2,77.91Z" transform="translate(-2.24 -3.17)"/><path class="cls-2" d="M133.46,70.69l-.05-.07S133.44,70.67,133.46,70.69Z" transform="translate(-2.24 -3.17)"/><path class="cls-9" d="M123,63.83s7.57,10.41,4.45,14.49c0,0,7.51-5.23,6.15-11.12S123,63.83,123,63.83Z" transform="translate(-2.24 -3.17)"/><path class="cls-5" d="M80.52,92.42a14.24,14.24,0,0,0-1.74-.94A11.79,11.79,0,0,0,77,90.86a6.53,6.53,0,0,0-.9-.2,8,8,0,0,0-.9-.12,7.53,7.53,0,0,0-.9,0l-.89,0-.89.12a5.49,5.49,0,0,0-.88.19,6.3,6.3,0,0,0-.88.23l-.87.3a9.15,9.15,0,0,0-.86.35l-.86.37c-.54.32-1.12.59-1.69.9l-.58.31-.31-.37A32,32,0,0,1,63,89.56a32,32,0,0,1,3.55,2.35l-.89-.06c.54-.42,1.07-.87,1.64-1.26l.91-.53a5.83,5.83,0,0,1,.94-.49l1-.39a6.77,6.77,0,0,1,1-.29,7.1,7.1,0,0,1,1.06-.2l1.08-.09c.36,0,.73,0,1.09.07a9.32,9.32,0,0,1,1.07.18,6,6,0,0,1,1,.32,7.28,7.28,0,0,1,1,.43,8.82,8.82,0,0,1,.9.56,7.78,7.78,0,0,1,.82.66A6.44,6.44,0,0,1,80.52,92.42Z" transform="translate(-2.24 -3.17)"/><path class="cls-5" d="M101.74,92.42A6.44,6.44,0,0,1,103,90.82a7.78,7.78,0,0,1,.82-.66,8.82,8.82,0,0,1,.9-.56,7.28,7.28,0,0,1,1-.43,6,6,0,0,1,1-.32,9.32,9.32,0,0,1,1.07-.18c.36,0,.72-.06,1.09-.07l1.08.09a7.1,7.1,0,0,1,1.06.2,6.77,6.77,0,0,1,1,.29l1,.39a5.83,5.83,0,0,1,.94.49l.91.53c.57.39,1.1.85,1.64,1.26l-.89.06a32,32,0,0,1,3.55-2.35,32,32,0,0,1-2.59,3.38l-.31.37-.58-.31c-.57-.3-1.14-.58-1.69-.9l-.86-.37a9.15,9.15,0,0,0-.86-.35l-.87-.3a6.3,6.3,0,0,0-.88-.23,5.49,5.49,0,0,0-.88-.19l-.89-.12-.89,0a7.53,7.53,0,0,0-.9,0,8,8,0,0,0-.9.12,6.53,6.53,0,0,0-.9.2,11.79,11.79,0,0,0-1.78.62A14.24,14.24,0,0,0,101.74,92.42Z" transform="translate(-2.24 -3.17)"/><circle class="cls-10" cx="107.52" cy="87.75" r="11.55"/><circle class="cls-10" cx="70.53" cy="89.25" r="11.55"/><path class="cls-11" d="M100.27,97.5l14.2-17.13s3.59,1.68,4.82,4l-15.5,16.4S101,98.91,100.27,97.5Z" transform="translate(-2.24 -3.17)"/><circle class="cls-12" cx="107.52" cy="87.75" r="11.55"/><circle class="cls-12" cx="70.63" cy="88.75" r="11.55"/><path class="cls-5" d="M78.75,125.92a2.81,2.81,0,0,1-1.5-3.11" transform="translate(-2.24 -3.17)"/><path class="cls-5" d="M111,126a2.81,2.81,0,0,0,1.5-3.11" transform="translate(-2.24 -3.17)"/></svg>